<?xml version="1.0" encoding="UTF-8" standalone="no"?>
<!-- Created with Inkscape (http://www.inkscape.org/) -->

<svg
   xmlns:dc="http://purl.org/dc/elements/1.1/"
   xmlns:cc="http://creativecommons.org/ns#"
   xmlns:rdf="http://www.w3.org/1999/02/22-rdf-syntax-ns#"
   xmlns:svg="http://www.w3.org/2000/svg"
   xmlns="http://www.w3.org/2000/svg"
   xmlns:sodipodi="http://sodipodi.sourceforge.net/DTD/sodipodi-0.dtd"
   xmlns:inkscape="http://www.inkscape.org/namespaces/inkscape"
   width="210mm"
   height="297mm"
   viewBox="0 0 210 297"
   version="1.1"
   id="svg84"
   inkscape:version="0.92.5 (2060ec1f9f, 2020-04-08)"
   sodipodi:docname="dessin2.svg">
  <defs
     id="defs78" />
  <sodipodi:namedview
     id="base"
     pagecolor="#ffffff"
     bordercolor="#666666"
     borderopacity="1.0"
     inkscape:pageopacity="0.0"
     inkscape:pageshadow="2"
     inkscape:zoom="0.35"
     inkscape:cx="400"
     inkscape:cy="560"
     inkscape:document-units="mm"
     inkscape:current-layer="layer1"
     showgrid="false"
     inkscape:window-width="1600"
     inkscape:window-height="837"
     inkscape:window-x="-8"
     inkscape:window-y="-8"
     inkscape:window-maximized="1" />
  <metadata
     id="metadata81">
    <rdf:RDF>
      <cc:Work
         rdf:about="">
        <dc:format>image/svg+xml</dc:format>
        <dc:type
           rdf:resource="http://purl.org/dc/dcmitype/StillImage" />
        <dc:title></dc:title>
      </cc:Work>
    </rdf:RDF>
  </metadata>
  <g
     inkscape:label="Calque 1"
     inkscape:groupmode="layer"
     id="layer1">
    <path
       inkscape:connector-curvature="0"
       id="path67"
       d="m 125.69442,203.23366 c 0.003,-0.19917 0.46823,-0.68928 1.03362,-1.08914 1.41661,-1.00185 4.51784,-3.60948 6.74465,-5.67116 l 1.85831,-1.72052 -2.37371,0.17082 c -5.11906,0.36839 -91.126527,4.64058 -93.423798,4.64058 H 37.0898 l -1.523179,-2.18281 c -0.837751,-1.20055 -2.852553,-3.96875 -4.477359,-6.15157 -3.946313,-5.30164 -9.117171,-12.68587 -9.117171,-13.01978 0,-0.16404 1.828245,-0.34758 4.696354,-0.47148 2.582995,-0.11159 5.615755,-0.27685 6.739467,-0.36727 l 2.043112,-0.16438 -1.586521,-1.85209 c -2.380244,-2.77865 -5.14006,-7.02501 -6.878399,-10.58333 -7.943718,-16.26057 -7.364756,-35.96112 1.581229,-53.80457 0.901462,-1.79804 1.601417,-3.30676 1.555486,-3.3527 -0.04596,-0.0459 -1.877087,0.0328 -4.069212,0.17494 -2.192126,0.14216 -4.660133,0.22212 -5.484443,0.1777 l -1.498785,-0.0808 1.886347,-2.77813 c 2.457688,-3.61958 9.664912,-13.591771 11.693789,-16.179981 l 1.587183,-2.024772 1.606259,-0.150894 c 0.883444,-0.08299 4.285165,-0.286197 7.559384,-0.451567 l 5.953125,-0.300675 1.852083,-1.261706 c 10.190454,-6.942073 20.070498,-10.770086 32.54375,-12.609043 4.761389,-0.70198 14.598333,-0.638869 19.579171,0.125613 8.66608,1.330106 16.86343,4.024562 23.54061,7.737758 l 2.83385,1.575912 9.30235,-0.482793 c 5.1163,-0.265536 9.89351,-0.475822 10.61604,-0.467302 l 1.31365,0.01551 8.29318,9.25989 8.29315,9.259888 -0.87558,0.206796 c -0.63344,0.149608 -12.12744,0.992116 -16.92362,1.240506 -0.0952,0.005 0.42103,0.99123 1.14715,2.19178 10.39111,17.18059 12.3094,38.61863 5.32093,59.4651 -0.65857,1.96453 -1.71731,4.75457 -2.35273,6.2001 -0.63542,1.44552 -1.10164,2.68188 -1.03605,2.74746 0.0656,0.0656 3.30803,-0.0168 7.20545,-0.18307 8.91878,-0.38051 12.71167,-0.4491 12.92698,-0.23379 0.0929,0.0928 -1.20388,2.52743 -2.8816,5.4102 -1.67775,2.88277 -4.59301,7.9203 -6.47838,11.19452 l -3.42794,5.95312 -1.81808,0.17702 c -0.99997,0.0974 -6.45152,0.42734 -12.11461,0.73328 l -10.2965,0.55627 -2.13892,2.04621 c -1.98691,1.90081 -4.73292,4.21864 -7.09985,5.99279 -0.64863,0.4862 -0.99023,0.61831 -0.98653,0.38157 z m -59.903969,-8.59906 1.352735,-0.16254 1.780593,-6.35957 c 0.979329,-3.49776 1.841844,-6.51921 1.916721,-6.71432 0.101336,-0.26411 -0.166899,-0.35476 -1.049734,-0.35476 -2.767568,0 -2.579185,-0.22922 -3.87686,4.71745 -0.636376,2.42587 -1.24124,4.57319 -1.344163,4.77182 -0.119301,0.23031 -0.978165,-1.15952 -2.370799,-3.83646 -1.201023,-2.30868 -2.319734,-4.32331 -2.485999,-4.47694 -0.387773,-0.3583 -3.609604,-0.16938 -3.609604,0.21166 0,0.15521 1.458515,2.9992 3.241146,6.31998 l 3.241146,6.03777 0.926041,0.004 c 0.509323,0.002 1.534769,-0.0689 2.278777,-0.15832 z m 11.79867,-1.03025 c 0.300699,-0.11539 0.237226,-1.22582 -0.372983,-6.52413 -0.404442,-3.51179 -0.790495,-6.44023 -0.857911,-6.50763 -0.06742,-0.0674 -0.901859,-0.0391 -1.854332,0.0629 -1.544797,0.16544 -1.73154,0.24747 -1.729502,0.75971 0,0.31584 0.298926,3.12815 0.661458,6.24958 0.362532,3.12143 0.659157,5.77057 0.659157,5.88698 0,0.23347 2.916951,0.29407 3.494113,0.0726 z m 7.303427,-0.7807 c 0.06863,-0.0686 -0.08379,-1.92042 -0.338694,-4.11511 -0.254926,-2.19469 -0.420475,-4.03251 -0.367929,-4.08405 0.05255,-0.0515 1.401313,1.69671 2.997253,3.885 l 2.901685,3.97869 1.952599,-0.14767 c 1.073917,-0.0812 2.018453,-0.21356 2.098992,-0.29409 0.08054,-0.0805 -0.170603,-2.91658 -0.558085,-6.30232 -0.387483,-3.38575 -0.703025,-6.2452 -0.701226,-6.35434 0.0045,-0.26991 -3.37095,-0.25362 -3.538246,0.0171 -0.07326,0.11852 0.08361,2.05329 0.348588,4.29948 0.264981,2.24618 0.458179,4.11234 0.429366,4.14702 -0.02884,0.0347 -1.40417,-1.78948 -3.056255,-4.05367 -2.530845,-3.4685 -3.09028,-4.09351 -3.552931,-3.96927 -0.301995,0.0811 -1.084897,0.1509 -1.739741,0.15512 -0.654844,0.004 -1.332336,0.0978 -1.505532,0.2079 -0.240056,0.15262 -0.159888,1.58301 0.337106,6.01522 0.881935,7.8648 0.604176,7.11231 2.550186,6.90891 0.889953,-0.093 1.674231,-0.22527 1.742864,-0.29389 z m -31.657555,-2.45368 c -0.09218,-1.25621 0,-1.3012 1.432242,-0.70258 0.944801,0.39477 1.032034,0.39143 1.356202,-0.0519 0.41402,-0.56618 0.260879,-0.73511 -1.044575,-1.15228 -0.545703,-0.17438 -0.992188,-0.40497 -0.992188,-0.51241 0,-0.10743 0.481886,-0.46617 1.070848,-0.79719 0.927894,-0.52149 1.026187,-0.66047 0.736336,-1.04091 -0.183992,-0.24148 -0.362823,-0.48329 -0.397431,-0.53735 -0.03461,-0.0541 -0.588407,0.20967 -1.230656,0.58605 -0.642276,0.37639 -1.24296,0.60914 -1.334876,0.51722 -0.09192,-0.0919 -0.167137,-0.63144 -0.167137,-1.19894 0,-0.96952 -0.04392,-1.02675 -0.727605,-0.94809 -0.690933,0.0795 -0.723714,0.14597 -0.650425,1.31926 l 0.07715,1.23554 -1.375384,-0.52261 c -1.104821,-0.4198 -1.418511,-0.45466 -1.594458,-0.17721 -0.410581,0.64735 -0.227913,0.92289 0.820049,1.23686 0.575972,0.17257 1.113473,0.42096 1.194435,0.55197 0.08099,0.13102 -0.332952,0.50808 -0.919824,0.83793 -1.091618,0.61352 -1.202372,0.92558 -0.488368,1.37596 0.294825,0.18598 0.686647,0.0629 1.439466,-0.4523 l 1.034336,-0.70783 0.245242,1.21187 c 0.221112,1.09279 0.311732,1.20408 0.922179,1.13265 0.622961,-0.0729 0.670374,-0.1689 0.594439,-1.20368 z m 51.606797,0.7628 c 0.10305,-0.0945 0.0757,-0.94477 -0.0608,-1.88946 -0.47773,-3.30587 -0.43937,-3.46019 1.8578,-7.47073 1.16416,-2.03248 2.11666,-3.7882 2.11666,-3.90162 0,-0.28703 -3.49721,0.007 -3.90165,0.32808 -0.1814,0.14398 -0.83624,1.19994 -1.45521,2.34656 -0.61899,1.14663 -1.2015,2.0849 -1.2945,2.08504 -0.093,1.5e-4 -0.92644,-0.89502 -1.85208,-1.98926 l -1.683016,-1.98952 -1.943841,0.11897 c -1.069128,0.0654 -2.009008,0.18412 -2.088621,0.26373 -0.121629,0.12163 1.698308,2.23579 5.259546,6.10989 0.623152,0.67788 0.773432,1.16067 1.029552,3.30729 0.16494,1.38245 0.33782,2.64106 0.38422,2.79692 0.0894,0.30047 3.28928,0.19836 3.63197,-0.11589 z m 12.51259,-0.95918 c 2.32834,-0.21597 4.32263,-0.39408 4.43177,-0.3958 0.38513,-0.006 0.2158,-2.39433 -0.18052,-2.54642 -0.20847,-0.08 -1.65714,-0.0168 -3.21929,0.14042 -1.56216,0.15723 -2.87727,0.24886 -2.92251,0.20363 -0.0881,-0.0882 -1.15216,-9.17388 -1.15216,-9.83851 0,-0.31185 -0.35684,-0.3968 -1.65364,-0.39362 -0.90951,0.002 -1.7862,0.0915 -1.94821,0.19844 -0.21246,0.14019 -0.0873,1.9648 0.44897,6.54438 0.40894,3.4925 0.74989,6.37977 0.75761,6.41615 0.0281,0.1324 1.28815,0.0562 5.43798,-0.32867 z m 10.65938,-1.04824 c 0.0937,-0.0937 -1.2256,-12.2052 -1.38562,-12.72071 -0.0825,-0.26573 -3.40316,-0.13431 -3.6738,0.14539 -0.0874,0.0904 1.16721,11.74461 1.39205,12.93043 0.023,0.12132 3.53058,-0.21832 3.66737,-0.35511 z m 13.43117,-1.23053 c 1.52575,-0.57086 1.56523,-0.64545 1.27389,-2.40755 l -0.16203,-0.9801 -1.23232,0.62447 c -1.57993,0.8006 -3.42588,1.08008 -4.592,0.69522 -3.21874,-1.06228 -3.86348,-6.18952 -0.97322,-7.73957 1.10495,-0.59259 3.44556,-0.63883 4.9775,-0.0983 1.07701,0.37999 1.09159,0.37689 1.09159,-0.23151 0,-0.33916 -0.0726,-0.97999 -0.16147,-1.42408 -0.1424,-0.71196 -0.31885,-0.84519 -1.49223,-1.12668 -0.77343,-0.18554 -2.08118,-0.25633 -3.12258,-0.16902 -4.88837,0.40982 -7.66011,3.53814 -6.92701,7.81807 0.66525,3.88355 3.77339,6.04325 8.21103,5.70542 0.91691,-0.0698 2.3159,-0.36966 3.10885,-0.66634 z m 7.05192,-5.84965 -0.0784,-1.2472 1.35803,0.56437 c 1.14699,0.47667 1.39493,0.50602 1.59567,0.18886 0.32108,-0.50723 0.30711,-1.03696 -0.0273,-1.03696 -0.15018,0 -0.71573,-0.18707 -1.25677,-0.41572 l -0.9837,-0.41572 1.12448,-0.66948 c 1.22619,-0.73003 1.32289,-0.91547 0.73274,-1.40525 -0.31763,-0.26362 -0.61243,-0.19579 -1.55834,0.35855 l -1.1666,0.68367 -0.18003,-1.20047 c -0.16615,-1.10801 -0.23434,-1.19417 -0.88519,-1.11855 -0.65574,0.0762 -0.6994,0.16075 -0.62264,1.20641 0.0922,1.2562 0,1.3012 -1.43224,0.70258 -0.94009,-0.3928 -1.03299,-0.39011 -1.34676,0.039 -0.44196,0.6044 -0.32303,0.75027 0.9557,1.17229 0.58939,0.19451 1.07159,0.44605 1.07159,0.55896 0,0.11292 -0.46686,0.4677 -1.03746,0.7884 -0.90437,0.50828 -0.99803,0.64623 -0.73011,1.07526 0.39708,0.63583 0.54633,0.62195 1.69351,-0.15758 0.52592,-0.35737 1.0554,-0.58847 1.17661,-0.51356 0.1212,0.0749 0.22037,0.61334 0.22037,1.1965 0,1.00059 0.041,1.05558 0.7276,0.97657 0.69213,-0.0796 0.7238,-0.14457 0.64924,-1.33091 z m -89.086217,-6.03471 c 24.519546,-1.27551 43.206957,-2.24118 53.530417,-2.76619 4.26665,-0.21698 7.87628,-0.46791 8.02146,-0.55763 0.3769,-0.23294 2.83614,-3.63042 4.14319,-5.72386 1.52857,-2.44828 3.60023,-6.62425 4.70376,-9.48165 0.84762,-2.19475 2.30526,-7.12939 2.10595,-7.12939 -0.0469,0 -1.55369,2.7682 -3.34851,6.15156 -2.35353,4.43659 -3.63374,6.55019 -4.59206,7.58144 -3.39466,3.65293 -10.5881,6.75425 -13.71608,5.91344 -0.60854,-0.16358 -3.96396,-1.92159 -7.45646,-3.9067 -5.657136,-3.21548 -6.407733,-3.57257 -6.879167,-3.27271 -2.565533,1.63185 -4.551945,2.70564 -6.297587,3.40426 -9.703831,3.88357 -20.646945,2.67413 -29.208624,-3.22814 -2.239856,-1.54411 -5.600567,-4.96088 -7.208652,-7.32889 -2.50444,-3.68798 -4.526042,-9.12457 -4.898496,-13.17331 -0.334777,-3.63921 -0.08699,-3.2599 -3.602646,-5.51468 -1.74789,-1.12101 -3.22453,-1.99162 -3.281468,-1.93468 -0.129646,0.12965 0.313002,18.60927 0.518795,21.65841 0.0835,1.23693 0.28829,3.17415 0.455083,4.30493 l 0.303292,2.05598 -0.903208,0.93187 c -0.496755,0.51253 -1.559534,1.25422 -2.361724,1.64819 -1.29032,0.63372 -1.763607,0.71632 -4.104349,0.71632 -5.573659,0 -6.112774,-1.37854 -5.407475,-13.82666 0.539539,-9.52234 0.44921,-15.71809 -0.276621,-18.97497 -0.323507,-1.45152 -0.814017,-3.2121 -1.090057,-3.9124 -0.27604,-0.7003 -0.501888,-1.54316 -0.501888,-1.87303 0,-1.37105 3.192568,-3.32435 6.959308,-4.25792 3.093033,-0.7666 5.299393,-0.0494 10.767775,3.49991 l 3.307292,2.14666 0.741283,-2.30288 c 1.031081,-3.20326 3.071971,-7.37651 5.089551,-10.40716 1.938655,-2.91209 6.050994,-7.33888 8.810493,-9.48419 1.025022,-0.79689 1.840997,-1.46092 1.813269,-1.47561 -0.149834,-0.0794 -34.199592,1.99949 -34.474124,2.10484 -0.391319,0.15016 -3.759014,6.93044 -4.74382,9.55091 -6.156378,16.38135 -5.827951,32.90969 0.932101,46.90718 2.186569,4.52751 5.36141,9.28651 8.271192,12.39824 0.729932,0.78059 0.871802,0.8254 2.274491,0.71853 0.822801,-0.0627 10.54473,-0.58469 21.604314,-1.16002 z m 78.448957,-3.97077 c 6.91224,-0.30308 12.93871,-0.60628 13.39213,-0.67379 0.7703,-0.11468 0.90775,-0.31775 2.09404,-3.09397 4.61185,-10.79298 6.73785,-21.69987 6.40321,-32.85 -0.17151,-5.71476 -0.69355,-9.48966 -2.05857,-14.88537 -1.55559,-6.14893 -4.14178,-12.30079 -7.45931,-17.74367 -0.73176,-1.20055 -1.34703,-2.18282 -1.36724,-2.18282 -1.05555,0 -35.99897,2.15236 -36.06826,2.22165 -0.0565,0.0565 0.55763,0.48066 1.3648,0.94249 5.3612,3.06735 10.88956,8.84981 14.35541,15.0152 0.80095,1.42475 1.38811,2.28265 1.30488,1.90644 -0.45093,-2.03784 -0.48379,-4.39323 -0.0724,-5.18878 2.3971,-4.63547 13.74889,-9.52403 16.26746,-7.00546 0.33877,0.33878 0.64823,1.86446 1.22171,6.02344 l 0.76801,5.56975 -7.48155,14.00399 c -7.26008,13.58947 -7.50369,14.09406 -8.22986,17.0467 -1.74617,7.09991 -5.09439,14.30803 -9.09336,19.57633 -1.78435,2.3507 -1.80181,2.21732 0.26617,2.03226 1.00378,-0.0898 7.48051,-0.4113 14.39275,-0.71439 z m -53.894275,-4.65338 c 1.148768,-0.21791 2.939997,-0.69922 3.980524,-1.06958 2.135743,-0.76016 6.021017,-2.73811 7.117318,-3.62333 l 0.727525,-0.58744 -8.605255,-4.85435 c -4.732867,-2.6699 -8.66185,-4.94595 -8.731012,-5.05788 -0.06919,-0.11194 -0.423598,-2.25064 -0.787559,-4.75266 l -0.661749,-4.54914 -1.058175,-1.20214 c -0.581977,-0.66117 -1.058174,-1.29286 -1.058174,-1.40374 0,-0.11089 -0.803672,0.63088 -1.785938,1.64836 -0.982266,1.01749 -2.559844,2.35662 -3.505729,2.97585 -2.997253,1.96219 -5.003668,2.4831 -7.705884,2.00061 -2.280602,-0.40721 -4.686035,-1.6086 -9.095158,-4.54254 -2.037291,-1.35567 -3.835109,-2.5507 -3.995182,-2.65561 -0.705035,-0.46212 0.317924,5.56747 1.535668,9.05152 1.532732,4.38523 3.91594,7.96841 7.6082,11.43898 6.73907,6.33443 16.414406,9.00536 26.02058,7.18309 z m 39.259195,-27.19243 7.42135,-13.86203 -0.22336,-1.41306 c -0.28779,-1.82054 -2.18483,-5.73854 -4.4037,-9.09517 -3.02162,-4.57095 -9.29899,-10.30077 -13.6915,-12.49723 l -1.05833,-0.52922 -22.225004,1.29878 -22.225,1.29879 -1.455208,0.97249 c -2.453561,1.63968 -8.173906,7.56033 -10.031148,10.38243 -2.616015,3.975 -5.826046,11.25167 -5.533364,12.54322 0.07572,0.33411 10.571268,7.38051 13.890996,9.32601 l 1.227111,0.71913 1.612265,-1.70372 c 2.153126,-2.27524 4.941305,-5.92181 10.60741,-13.87318 8.349456,-11.71693 12.112466,-16.26835 14.369441,-17.38006 1.132576,-0.55787 1.595332,-0.61161 5.266294,-0.61161 3.320917,0 4.098107,0.0734 4.444977,0.41953 0.27371,0.27316 0.86852,2.76568 1.70484,7.14375 1.47849,7.74007 2.1522,10.53482 4.04458,16.77839 l 1.36326,4.49791 1.91784,1.85209 c 2.07915,2.00785 2.47591,2.72818 2.47591,4.49484 0,1.57546 -0.85984,2.53955 -3.04524,3.41443 -0.94756,0.37933 -1.89312,0.68968 -2.1013,0.68968 -0.20815,0 -0.45799,0.1287 -0.5552,0.28598 -0.32782,0.53042 -0.87992,3.28427 -0.69612,3.47214 0.24038,0.24568 9.12749,5.23772 9.3245,5.23772 0.0838,0 3.49195,-6.23791 7.5737,-13.86203 z m -17.15088,6.66726 c 0.16532,-0.6829 0.30073,-1.27821 0.30092,-1.32292 2.1e-4,-0.0447 -0.635,-0.0416 -1.41156,0.007 -3.10576,0.1938 -5.011629,-1.01168 -6.413815,-4.05685 -0.91911,-1.99601 -2.41337,-6.9954 -3.986477,-13.33757 l -0.984541,-3.96938 -1.287939,-0.27621 c -0.708342,-0.15192 -2.160376,-0.27621 -3.226752,-0.27621 h -1.938814 l -4.365122,6.01927 c -2.400803,3.3106 -5.082355,6.91157 -5.958999,8.00217 -1.510586,1.87927 -1.575462,2.01854 -1.241108,2.6651 0.194046,0.37522 0.539221,0.83694 0.767107,1.02606 0.347768,0.28863 0.414311,0.27322 0.414311,-0.096 0,-1.3249 2.219986,-3.93456 4.848595,-5.69968 3.119517,-2.09479 7.486492,-3.58613 9.917668,-3.38696 2.197365,0.18003 2.313067,0.39521 3.092133,5.75061 0.369649,2.54116 0.770599,4.7188 0.891011,4.8392 0.514456,0.51446 9.972812,5.67603 10.120362,5.52283 0.0894,-0.0928 0.29771,-0.72743 0.46302,-1.41033 z M 93.409591,123.42955 c 0,-0.10961 -0.238125,-1.03196 -0.529167,-2.04968 -0.291041,-1.01772 -0.529166,-2.29024 -0.529166,-2.82782 0,-0.53758 -0.09631,-1.03694 -0.214022,-1.10969 -0.117713,-0.0728 -1.185492,1.14061 -2.372836,2.69636 l -2.158815,2.82865 2.536904,0.1861 c 1.395281,0.10236 2.601966,0.25119 2.681526,0.33073 0.211482,0.21148 0.585576,0.17656 0.585576,-0.0547 z M 56.864547,101.69413 c 0.292841,-0.18549 0.32938,-0.8464 0.186293,-3.369384 -0.0979,-1.726248 -0.235717,-3.674413 -0.306281,-4.329256 -0.119936,-1.113412 -0.02408,-0.988055 1.476904,1.932974 l 1.605147,3.123603 1.094238,-0.08089 1.094237,-0.08089 1.103948,-3.307292 1.103921,-3.307292 0.179572,2.778125 c 0.09874,1.527969 0.250243,3.522266 0.33663,4.431772 l 0.157083,1.65365 h 1.408774 c 0.774832,0 1.464839,-0.0907 1.53334,-0.20157 0.06853,-0.11086 -0.06522,-2.983997 -0.29718,-6.384748 L 67.1194,88.369749 65.129125,88.53799 c -1.094634,0.09253 -2.067877,0.256995 -2.162731,0.365477 -0.09485,0.108479 -0.62476,1.536689 -1.177528,3.173799 -0.552767,1.637109 -1.078283,2.976562 -1.167791,2.976562 -0.08951,0 -0.836692,-1.353913 -1.660393,-3.008696 l -1.497647,-3.008696 -1.936618,0.129513 c -1.065133,0.07123 -2.00869,0.204756 -2.096797,0.296717 -0.08808,0.09196 0.02461,2.935407 0.250402,6.318766 l 0.410554,6.151568 1.204833,-0.004 c 0.662649,-0.002 1.368769,-0.10789 1.569138,-0.23481 z m 19.551174,-1.24009 c 1.785726,-0.0975 3.306313,-0.2736 3.379126,-0.39141 0.07281,-0.117811 0.05345,-0.707983 -0.04307,-1.311492 l -0.175472,-1.097294 -2.711635,0.184827 -2.711662,0.184825 -0.11467,-1.286399 c -0.06305,-0.70752 -0.09607,-1.316045 -0.07334,-1.35228 0.02275,-0.03624 1.13284,-0.143362 2.466922,-0.238059 l 2.425595,-0.172175 v -1.307989 -1.307989 l -2.495894,0.187127 -2.495894,0.187124 -0.18169,-0.968521 c -0.09993,-0.532685 -0.125703,-1.024517 -0.05726,-1.092962 0.06845,-0.06844 1.273361,-0.199908 2.677584,-0.29215 l 2.55315,-0.167711 v -1.28301 c 0,-1.154462 -0.05964,-1.282904 -0.595313,-1.281935 -1.010761,0.0019 -7.987453,0.556019 -8.072702,0.641252 -0.04421,0.04422 0.10205,2.675096 0.325067,5.846394 0.222991,3.171299 0.405448,5.998767 0.405448,6.283267 0,0.45596 0.13327,0.49928 1.124479,0.36552 0.618463,-0.0835 2.585535,-0.23149 4.371234,-0.32896 z m 14.078056,-1.233029 c 2.130927,-1.088845 2.259859,-1.463787 2.216652,-6.445229 -0.02064,-2.391027 -0.111654,-4.741508 -0.202035,-5.223296 l -0.164333,-0.875975 -1.517756,0.120439 c -0.83476,0.06624 -1.558899,0.156736 -1.609196,0.201102 -0.05027,0.04437 0.04606,1.992982 0.214101,4.330258 0.247994,3.449383 0.240189,4.385921 -0.04146,4.973584 -0.713158,1.487975 -2.898458,1.487528 -3.505888,-7.93e-4 -0.190897,-0.467765 -0.470006,-2.675319 -0.62021,-4.905674 -0.15023,-2.230358 -0.317579,-4.099653 -0.371898,-4.153985 -0.05435,-0.05434 -0.779436,-0.02854 -1.611313,0.05731 l -1.512517,0.156183 0.0042,1.087462 c 0.0082,2.125681 0.533585,7.451944 0.825023,8.363505 0.353351,1.10534 0.878549,1.756983 1.948921,2.418145 1.199462,0.740893 4.404783,0.685363 5.947728,-0.10304 z M 103.73443,98.3348 c 0.7425,-0.220501 1.51503,-0.671352 1.82451,-1.064793 1.16173,-1.476906 0.91056,-3.855312 -0.51874,-4.912045 l -0.75748,-0.560014 0.51658,-0.656701 c 0.76454,-0.971971 0.70654,-2.948893 -0.11243,-3.832596 -0.95699,-1.032608 -2.262,-1.274635 -5.811226,-1.077751 -2.3096,0.128119 -3.170052,0.270568 -3.274218,0.54206 -0.14097,0.367316 0.320595,8.57767 0.619892,11.026989 l 0.157745,1.290922 3.033818,-0.186825 c 1.668569,-0.102751 3.613279,-0.358913 4.321549,-0.569246 z m -4.334408,-2.499194 c -0.09327,-0.46636 -0.169598,-1.176716 -0.169598,-1.578565 0,-0.664678 0.109088,-0.74699 1.208296,-0.911828 1.55234,-0.232789 2.49587,0.308271 2.49587,1.431226 0,0.959131 -0.61465,1.599195 -1.54024,1.603912 -0.38979,0.0021 -0.95981,0.07102 -1.26672,0.1534 -0.462548,0.124156 -0.587035,0.0047 -0.727608,-0.698145 z M 98.965841,89.796565 V 88.43924 h 1.171739 c 1.2524,0 2.00326,0.490807 2.00326,1.309417 0,0.706393 -0.64606,1.120188 -1.98451,1.271051 l -1.190489,0.134183 z m -49.741667,7.343066 c 0,-0.56511 0.04501,-1.027475 0.09999,-1.027475 0.05501,0 0.536496,0.182383 1.069975,0.405292 0.533506,0.222911 1.083839,0.334946 1.222957,0.24897 0.56515,-0.349287 0.189574,-0.967449 -0.858149,-1.412417 l -1.111065,-0.471871 1.108419,-0.660974 c 0.999807,-0.596218 1.073414,-0.708819 0.751311,-1.149308 -0.344911,-0.47172 -0.388647,-0.468815 -1.28532,0.08536 -0.51054,0.315532 -1.003511,0.573696 -1.09548,0.573696 -0.09197,0 -0.167217,-0.47625 -0.167217,-1.058333 0,-0.9525 -0.06615,-1.058333 -0.661458,-1.058333 -0.607986,0 -0.661459,0.09666 -0.661459,1.196001 v 1.196004 l -1.094211,-0.558231 c -0.886327,-0.452165 -1.136914,-0.490892 -1.318868,-0.203817 -0.402881,0.635649 -0.24429,0.876467 0.891778,1.354077 l 1.119161,0.470493 -1.116647,0.665887 c -0.989939,0.590331 -1.080638,0.723572 -0.799174,1.174253 0.309006,0.494781 0.347741,0.49063 1.450022,-0.155345 l 1.132523,-0.663713 v 1.02539 c 0,1.199193 0.114987,1.367754 0.809069,1.186242 0.397483,-0.103939 0.513847,-0.367102 0.513847,-1.16185 z m 66.357346,0.661528 2.46046,-0.1718 -0.0792,-1.221623 -0.0792,-1.221621 -2.80469,0.09621 -2.80471,0.09621 -0.17857,-3.006627 c -0.0982,-1.653646 -0.25149,-3.869833 -0.34062,-4.924859 l -0.16208,-1.918226 h -1.5354 c -0.84445,0 -1.58131,0.0893 -1.63746,0.198438 -0.0857,0.166531 0.70988,12.175712 0.82582,12.466503 0.0214,0.05348 0.90196,0.02567 1.95699,-0.06179 1.05503,-0.08746 3.02546,-0.236329 4.3787,-0.330817 z m 9.56344,-0.638728 c 1.95649,-0.149247 3.60794,-0.322051 3.6699,-0.384009 0.062,-0.06196 0.032,-0.650724 -0.0666,-1.308364 l -0.1793,-1.195711 -1.10935,0.116163 c -0.61013,0.06389 -1.85348,0.177914 -2.76299,0.253389 l -1.65364,0.137229 v -1.451153 -1.451152 h 1.286 c 0.70729,0 1.82849,-0.07436 2.49156,-0.165243 l 1.20557,-0.16524 -0.13287,-0.959239 c -0.0731,-0.527579 -0.16772,-1.079923 -0.21029,-1.227431 -0.0495,-0.17131 -0.92546,-0.208973 -2.42486,-0.104259 -1.29106,0.09017 -2.3717,0.146854 -2.40143,0.125971 -0.0297,-0.02088 -0.13124,-0.520782 -0.22559,-1.110891 l -0.17158,-1.072922 2.70817,-0.164989 c 1.4895,-0.09074 2.7309,-0.198771 2.75868,-0.240059 0.0278,-0.04129 0,-0.64733 -0.063,-1.346753 -0.10824,-1.212765 -0.14592,-1.26537 -0.81328,-1.135428 -0.38489,0.07494 -2.27986,0.216128 -4.21108,0.313754 -1.93119,0.09763 -3.56931,0.271409 -3.64024,0.386186 -0.0709,0.114773 0.0506,2.67458 0.27014,5.688457 0.2195,3.013876 0.3991,5.762051 0.3991,6.107054 0,0.747607 0.0668,0.752094 5.27703,0.35464 z m 13.7844,-1.201402 c 1.2923,-0.746509 1.8947,-2.027507 1.76691,-3.757332 -0.16709,-2.261709 -1.3635,-3.167039 -4.82105,-3.648051 -1.75845,-0.244637 -2.24896,-0.533157 -2.24896,-1.32289 0,-0.473549 0.20452,-0.738283 0.7276,-0.941838 0.74158,-0.288575 3.79111,-0.181271 4.63021,0.162925 0.40458,0.165947 0.46302,0.02289 0.46302,-1.132988 0,-1.609018 -0.0862,-1.654498 -3.16489,-1.669087 -3.96502,-0.01878 -5.69952,1.166569 -5.66047,3.868362 0.0344,2.37984 1.06447,3.259841 4.59772,3.927936 1.95297,0.369278 2.42914,0.702003 2.31095,1.61476 -0.15859,1.224711 -2.78781,1.489747 -5.45243,0.549621 l -1.14633,-0.40445 0.18661,1.385933 c 0.10263,0.762264 0.22664,1.429501 0.27556,1.482751 0.29525,0.321379 2.1576,0.531106 4.22825,0.476165 1.82584,-0.04845 2.60938,-0.188655 3.3073,-0.591817 z m 7.19013,-5.370486 c -0.0656,-1.017992 -0.0183,-1.133205 0.39687,-0.965126 1.69254,0.685334 1.98538,0.734367 2.21552,0.370964 0.37227,-0.587816 0.30051,-0.681812 -0.8816,-1.154803 -1.22668,-0.490815 -1.24962,-0.41199 0.46035,-1.58084 0.4943,-0.33787 0.50015,-0.391665 0.0887,-0.816332 -0.41579,-0.429213 -0.48757,-0.421042 -1.28412,0.146142 -0.95473,0.679839 -1.30678,0.448562 -1.31408,-0.863287 -0.003,-0.607119 -0.11856,-0.727605 -0.69557,-0.727605 -0.6696,0 -0.68585,0.03768 -0.51294,1.190625 0.0982,0.654844 0.10697,1.190625 0.0196,1.190625 -0.0875,0 -0.62624,-0.238347 -1.19726,-0.529661 -1.0323,-0.526632 -1.03981,-0.526677 -1.31744,-0.008 -0.24434,0.456576 -0.13838,0.593548 0.84873,1.09714 1.01645,0.518546 1.07923,0.604343 0.63516,0.867852 -0.27104,0.160829 -0.74658,0.493096 -1.05675,0.73837 -0.50667,0.400669 -0.52287,0.487788 -0.15954,0.857985 0.36563,0.372502 0.49617,0.349687 1.36075,-0.23781 l 0.95634,-0.64984 0.157,0.585605 c 0.0863,0.322085 0.15862,0.861779 0.1606,1.199321 0.003,0.484318 0.12912,0.59589 0.59891,0.529167 0.52745,-0.07491 0.58682,-0.216368 0.52084,-1.240539 z M 89.308549,83.807129 c 20.372921,-1.09992 37.517921,-2.092907 38.100001,-2.206633 l 1.05833,-0.206777 -4.36562,-2.158757 c -6.63125,-3.279095 -13.36389,-5.346523 -21.43125,-6.581018 -4.287681,-0.656117 -14.740601,-0.655495 -19.182294,0.0011 -10.892843,1.610349 -20.778655,5.266576 -29.633333,10.959759 -1.018646,0.654947 -2.136008,1.413055 -2.483062,1.684687 l -0.631005,0.493879 0.763297,0.0068 c 0.419814,0.0037 17.43202,-0.893146 37.804936,-1.993069 z"
       style="fill:#000000;stroke-width:0.26458332" />
  </g>
</svg>
