<?xml version="1.0" encoding="UTF-8" standalone="no"?>
<!-- Created with Inkscape (http://www.inkscape.org/) -->

<svg
   xmlns:dc="http://purl.org/dc/elements/1.1/"
   xmlns:cc="http://creativecommons.org/ns#"
   xmlns:rdf="http://www.w3.org/1999/02/22-rdf-syntax-ns#"
   xmlns:svg="http://www.w3.org/2000/svg"
   xmlns="http://www.w3.org/2000/svg"
   xmlns:sodipodi="http://sodipodi.sourceforge.net/DTD/sodipodi-0.dtd"
   xmlns:inkscape="http://www.inkscape.org/namespaces/inkscape"
   width="210mm"
   height="297mm"
   viewBox="0 0 210 297"
   version="1.1"
   id="svg59"
   inkscape:version="0.92.5 (2060ec1f9f, 2020-04-08)"
   sodipodi:docname="dessin1.svg">
  <defs
     id="defs53" />
  <sodipodi:namedview
     id="base"
     pagecolor="#ffffff"
     bordercolor="#666666"
     borderopacity="1.0"
     inkscape:pageopacity="0.0"
     inkscape:pageshadow="2"
     inkscape:zoom="0.35"
     inkscape:cx="400"
     inkscape:cy="560"
     inkscape:document-units="mm"
     inkscape:current-layer="layer1"
     showgrid="false"
     inkscape:window-width="1600"
     inkscape:window-height="837"
     inkscape:window-x="-8"
     inkscape:window-y="-8"
     inkscape:window-maximized="1" />
  <metadata
     id="metadata56">
    <rdf:RDF>
      <cc:Work
         rdf:about="">
        <dc:format>image/svg+xml</dc:format>
        <dc:type
           rdf:resource="http://purl.org/dc/dcmitype/StillImage" />
        <dc:title></dc:title>
      </cc:Work>
    </rdf:RDF>
  </metadata>
  <g
     inkscape:label="Calque 1"
     inkscape:groupmode="layer"
     id="layer1">
    <path
       inkscape:connector-curvature="0"
       id="path42"
       d="m 90.80905,219.05459 c -0.218282,-0.0466 -1.647032,-0.27808 -3.175,-0.51446 -6.217656,-0.96184 -14.019874,-3.25223 -20.401651,-5.98905 -6.132724,-2.63002 -13.709756,-7.18471 -18.852118,-11.3324 -2.159159,-1.74149 -2.430171,-1.88455 -3.429688,-1.8102 l -1.085268,0.0807 -2.78802,-3.86783 c -1.53342,-2.1273 -3.797724,-5.09835 -5.031793,-6.60234 -6.815058,-8.30575 -12.267248,-18.93682 -14.948351,-29.14739 -1.408747,-5.36492 -1.99599,-9.27163 -1.953365,-12.99464 l 0.0368,-3.21486 0.226642,2.7624 c 0.812245,9.89976 3.882575,20.5284 8.373719,28.9876 l 0.983297,1.85208 4.233334,-0.0844 c 2.328333,-0.0464 5.325851,-0.16551 6.66115,-0.26458 l 2.42779,-0.18014 -1.743763,-2.11667 c -14.397011,-17.47572 -16.19332,-42.75035 -4.623382,-65.05169 0.820235,-1.58101 1.534134,-2.74616 1.586442,-2.58923 0.06559,0.19671 0.233098,0.20189 0.539274,0.0167 0.477758,-0.28896 34.549133,-2.34419 34.234808,-2.06508 -0.103717,0.0921 -7.734618,0.60207 -16.957596,1.13331 -9.222951,0.53123 -16.888195,1.03952 -17.033849,1.12953 -0.145626,0.09 -1.195334,2.08184 -2.332698,4.42629 -3.251095,6.70166 -5.41274,13.91702 -6.350053,21.19597 -0.454529,3.52985 -0.382139,11.35358 0.137133,14.81666 1.597157,10.65216 6.061763,20.40467 12.776888,27.90997 l 1.06209,1.18707 18.88498,-0.99607 c 10.386722,-0.54784 29.296678,-1.53344 42.022148,-2.19023 15.60976,-0.80566 23.25818,-1.2946 23.50911,-1.50286 0.67625,-0.56122 3.93631,-5.31723 5.30489,-7.73913 0.7401,-1.30969 1.81322,-3.45989 2.38472,-4.77824 1.16795,-2.69417 2.80453,-7.49036 2.61916,-7.67573 -0.0668,-0.0668 -1.35987,2.23182 -2.87364,5.10796 -2.49917,4.7485 -2.93854,5.41643 -4.77821,7.26404 -1.73953,1.74699 -2.45036,2.24009 -5.02708,3.48723 -3.39778,1.64452 -5.27942,2.13759 -7.53492,1.97444 -1.42922,-0.10338 -2.09865,-0.41822 -7.94887,-3.73848 -3.51351,-1.99408 -6.48804,-3.62509 -6.61006,-3.62447 -0.122,5.3e-4 -0.75764,0.36453 -1.41248,0.80867 -3.210583,2.17753 -7.66532,3.93917 -11.769854,4.65439 -3.510412,0.61171 -9.464252,0.37063 -12.881266,-0.52157 -8.31604,-2.17134 -15.001743,-7.36468 -18.965677,-14.73219 -1.868065,-3.47202 -3.47906,-9.30691 -3.47906,-12.60081 v -1.15441 l -2.315104,-1.49435 c -4.402746,-2.8419 -4.253098,-2.76003 -4.139459,-2.26433 0.05649,0.24655 0.228177,5.38937 0.381476,11.42848 0.257281,10.13476 0.399098,12.50021 0.905987,15.11218 0.161872,0.83421 0.07805,1.07958 -0.653521,1.9128 -0.461566,0.5257 -1.629834,1.34503 -2.596118,1.82074 -1.567366,0.77161 -2.000198,0.86496 -4.012275,0.86533 -1.87706,2.6e-4 -2.47724,-0.11053 -3.578278,-0.66105 -0.755914,-0.37796 -1.462643,-0.95618 -1.648936,-1.34911 -0.743744,-1.56872 -0.894874,-4.4606 -0.544803,-10.42485 0.461221,-7.85805 0.448998,-17.44988 -0.0254,-19.84375 -0.201825,-1.01864 -0.70784,-2.86319 -1.12448,-4.09898 -0.416639,-1.2358 -0.757528,-2.38752 -0.757528,-2.55939 0,-1.68501 5.865574,-4.59358 9.23798,-4.58084 2.22594,0.008 4.521227,0.96569 8.43235,3.51683 2.165456,1.4125 3.551661,2.16693 3.610293,1.9649 1.481617,-5.10375 3.963408,-10.10772 6.986299,-14.08627 2.698062,-3.55105 8.65812,-9.06644 9.463458,-8.75741 0.193966,0.0744 0.43442,0.003 0.534326,-0.15856 0.119513,-0.19336 0.0545,-0.22015 -0.189971,-0.0783 -0.204364,0.11857 -0.280802,0.11563 -0.169862,-0.007 0.278924,-0.30708 -0.169413,-0.27546 24.10714,-1.70018 16.322933,-0.95794 21.823573,-1.20067 22.110163,-0.97564 0.28843,0.22646 0.33544,0.22276 0.19273,-0.0152 -0.11806,-0.19678 -0.0132,-0.31086 0.27992,-0.30444 0.36791,0.008 13.53961,-0.75214 36.98124,-2.134367 8.04288,-0.474244 16.29722,-1.093107 16.82181,-1.261203 0.65686,-0.210473 0.38232,-0.553243 -7.37981,-9.214437 l -8.06201,-8.995833 -1.21915,-0.02016 c -0.67053,-0.01109 -5.38636,0.187317 -10.47959,0.440894 -5.09323,0.253576 -9.6176,0.467997 -10.05417,0.476488 -0.43656,0.0085 -17.70062,0.970076 -38.364601,2.136849 -20.663958,1.166773 -38.285208,2.121323 -39.158333,2.121225 -1.681851,-1.9e-4 -13.351802,0.707872 -15.640739,0.948987 -1.281932,0.135035 -1.422373,0.228962 -2.664036,1.781632 -2.492269,3.116471 -11.858229,16.151845 -13.413688,18.668895 -0.199813,0.32335 0.384995,0.35106 4.101042,0.19431 2.383764,-0.10055 4.750806,-0.24578 5.260129,-0.32274 0.634259,-0.0958 0.811715,-0.06 0.563218,0.11375 -0.199549,0.13952 -2.342647,0.33503 -4.762473,0.43445 -2.419827,0.0994 -4.599068,0.23747 -4.842749,0.30678 -0.494956,0.14073 -2.405274,4.46732 -3.836061,8.68807 -1.886744,5.56573 -3.271441,12.26012 -3.754967,18.15356 l -0.226642,2.7624 -0.03683,-3.21486 c -0.07228,-6.31183 2.190247,-15.84801 5.56686,-23.4634 0.591581,-1.33425 1.063995,-2.6746 1.04976,-2.97856 -0.01429,-0.30396 0.715354,-1.69694 1.621288,-3.09551 0.905933,-1.39858 2.382203,-3.70973 3.280569,-5.135894 9.6706,-15.351981 24.887158,-27.224571 42.816569,-33.407273 7.896277,-2.722914 14.329648,-4.004267 20.6375,-4.110447 2.473854,-0.04164 3.962135,-0.03038 3.307291,0.02503 -9.683459,0.81933 -15.716435,1.983933 -23.159905,4.470768 -10.94314,3.656071 -22.136153,10.283423 -29.953347,17.735264 l -2.052373,1.956459 1.190625,0.01466 c 0.654844,0.0081 3.750469,-0.126505 6.879167,-0.299042 l 5.688542,-0.313707 3.042708,-2.044542 c 17.444164,-11.721557 38.68158,-15.438561 58.869816,-10.303472 5.47139,1.391703 8.71905,2.626442 14.36587,5.461812 l 4.84087,2.430685 8.75776,-0.499769 c 4.81676,-0.274873 8.80477,-0.546796 8.86227,-0.604271 0.13999,-0.139988 -2.90769,-2.37327 -5.97985,-4.381921 -7.54301,-4.93183 -15.97091,-8.633317 -24.77553,-10.88128 -5.72365,-1.46135 -9.78567,-2.104486 -17.31618,-2.74165 -0.65485,-0.05541 0.83343,-0.06642 3.30729,-0.02447 13.49306,0.228812 30.5445,6.515452 43.20693,15.929819 2.2506,1.673283 2.71232,1.911168 3.75661,1.93539 l 1.19062,0.02762 8.33438,9.353232 c 4.5839,5.144278 8.33437,9.512102 8.33437,9.706274 0,0.194172 -0.26789,0.391089 -0.59531,0.437589 -0.32742,0.0465 -0.59531,0.133702 -0.59531,0.193778 0,0.06008 0.49474,0.914998 1.09945,1.899828 1.73611,2.82754 4.83481,9.32983 6.15653,12.91883 2.59247,7.03961 4.1442,14.55759 4.0843,19.78816 l -0.0368,3.21486 -0.22664,-2.7624 c -0.9615,-11.71917 -5.03629,-24.15655 -11.01543,-33.62218 l -1.0891,-1.724155 -7.48977,0.451774 c -4.11938,0.248475 -7.69687,0.458801 -7.94997,0.467381 -0.38203,0.013 -0.28934,0.29635 0.54597,1.66926 2.81689,4.62972 4.85767,9.07321 6.47073,14.08907 5.25412,16.33774 4.1312,34.88297 -3.1464,51.96314 -0.6446,1.51286 -1.12397,2.79871 -1.06524,2.85744 0.11809,0.11807 13.99141,-0.38111 17.04197,-0.61319 2.2329,-0.16988 1.94467,0.21954 3.795,-5.12719 1.98761,-5.74342 3.40503,-12.47651 3.90224,-18.53656 l 0.22664,-2.76239 0.0368,3.21485 c 0.0597,5.21778 -1.50408,12.80535 -4.06879,19.74157 -0.65233,1.76424 -1.18607,3.24413 -1.18607,3.28866 0,0.0445 0.17859,0.081 0.39687,0.081 0.21828,0 0.39688,0.1079 0.39688,0.23978 0,0.13188 -1.65026,3.07867 -3.66726,6.54844 -2.01697,3.46976 -4.96787,8.57084 -6.55754,11.33574 l -2.89031,5.02708 -1.5394,0.16635 c -1.45328,0.15704 -1.6378,0.26226 -3.29816,1.8808 -11.24165,10.95842 -24.65282,18.41658 -39.65557,22.05309 -5.68531,1.37806 -9.95455,1.96279 -13.96156,1.9122 -1.89177,-0.0238 -2.9038,-0.0807 -2.24895,-0.12639 11.56493,-0.80582 21.49289,-3.22607 31.12404,-7.58743 8.42428,-3.81487 16.76813,-9.4696 22.98325,-15.57604 l 2.64583,-2.59956 -1.98437,0.14241 c -1.09141,0.0783 -5.66886,0.32404 -10.17212,0.54604 l -8.18777,0.40363 -2.26449,2.18297 c -2.72026,2.62235 -7.56227,6.52381 -8.09652,6.52381 -0.8614,0 -0.26053,-0.75485 1.93199,-2.42702 1.27323,-0.97105 3.46493,-2.82644 4.87048,-4.12308 1.40552,-1.29665 2.7152,-2.36516 2.91041,-2.37447 3.88372,-0.18524 21.45829,-1.23689 22.71036,-1.35897 l 1.71794,-0.1675 3.27125,-5.68854 c 1.79919,-3.1287 4.66969,-8.09028 6.37887,-11.02573 2.5772,-4.42628 3.02887,-5.35778 2.64639,-5.4578 -0.25366,-0.0663 -2.94471,-0.0175 -5.98014,0.10855 -3.03541,0.12604 -7.48348,0.29727 -9.88457,0.38053 -4.87267,0.16894 -28.45509,1.30746 -32.12507,1.55094 -1.29771,0.0861 -2.28063,0.0777 -2.1843,-0.0187 0.16597,-0.16597 13.74815,-0.90644 23.19687,-1.26464 2.40109,-0.091 4.8614,-0.2269 5.46735,-0.30195 l 1.10172,-0.13644 1.2277,-2.80331 c 2.58265,-5.8972 4.6515,-12.96416 5.71751,-19.5303 0.80544,-4.96133 0.99997,-14.59995 0.39269,-19.45949 -1.24727,-9.98099 -4.27926,-18.71833 -9.33685,-26.90616 l -1.18449,-1.91757 -1.75895,0.14343 c -1.58197,0.129 -33.05579,1.97192 -33.6768,1.97192 -0.14152,0 1.02897,0.8553 2.60109,1.90066 4.98872,3.31716 9.95503,8.76544 12.85875,14.10664 0.5538,1.01864 0.94835,1.61395 0.87681,1.32291 -0.44662,-1.81675 -0.45937,-3.55408 -0.0327,-4.45321 1.06392,-2.24207 4.9407,-5.18026 8.9993,-6.82054 1.64259,-0.66384 2.62636,-0.88175 4.39225,-0.97288 1.38776,-0.0716 2.48917,-0.003 2.82307,0.17559 0.75581,0.4045 0.97462,1.27169 1.78134,7.05969 l 0.70284,5.04281 -7.47832,13.99186 c -7.36253,13.77527 -7.49146,14.04331 -8.32744,17.31448 -1.03889,4.06517 -1.70268,6.01184 -3.16931,9.29453 -2.09196,4.68229 -6.75921,12.03146 -7.46932,11.76138 -0.18741,-0.0713 -0.40326,0.0333 -0.47964,0.23236 -0.16851,0.43912 1.0809,0.3575 -28.945279,1.89087 -12.878594,0.65769 -30.737969,1.59023 -39.6875,2.07232 l -16.271876,0.87654 -0.653441,-0.55478 c -0.436563,-0.37063 -0.536443,-0.40212 -0.300937,-0.0949 0.294375,0.38402 0.293052,0.48026 -0.0079,0.58339 -0.394255,0.13506 -10.006515,0.67651 -12.00994,0.67651 h -1.243775 l 0.461566,0.7276 c 0.459581,0.72444 6.07523,8.55466 11.661219,16.2599 l 2.933832,4.04687 2.357835,0.0729 c 1.742361,0.0539 76.184856,-3.55884 93.374526,-4.5315 1.59699,-0.0904 1.85684,-0.0638 1.05833,0.10804 -0.89741,0.19316 -90.456724,4.775 -92.934917,4.75452 -0.472943,-0.004 -0.855742,0.0822 -0.850662,0.19135 0.005,0.10914 1.106381,1.04336 2.447396,2.07603 13.764947,10.60008 29.403542,16.37564 47.814203,17.65845 0.654844,0.0456 -0.47625,0.0899 -2.513542,0.0985 -2.037291,0.008 -3.88276,-0.0225 -4.101041,-0.0692 z m 46.83127,-20.09455 c 0.18116,-0.21829 0.26985,-0.39688 0.19709,-0.39688 -0.0728,0 -0.28051,0.17859 -0.46167,0.39688 -0.18116,0.21828 -0.26985,0.39687 -0.19709,0.39687 0.0728,0 0.28051,-0.17859 0.46167,-0.39687 z m 3.175,-3.00942 c 0,-0.0728 -0.35719,0.20991 -0.79375,0.62817 -0.43656,0.41825 -0.79375,0.81999 -0.79375,0.89275 0,0.0728 0.35719,-0.20992 0.79375,-0.62817 0.43656,-0.41825 0.79375,-0.81999 0.79375,-0.89275 z m -19.14401,-27.31575 c 3.46554,-1.06908 7.35849,-3.42032 9.17319,-5.54038 0.50832,-0.59386 2.20607,-3.48268 3.7728,-6.4196 3.41503,-6.40167 4.43558,-8.17493 4.27019,-7.41966 -0.0682,0.31131 -0.037,0.7067 0.0692,0.87863 0.10626,0.17194 0.25945,-0.32919 0.34041,-1.11362 0.1179,-1.14231 0.64318,-2.34429 2.63874,-6.03801 1.37036,-2.53647 4.76449,-8.89803 7.54251,-14.13678 l 5.05095,-9.525 -0.77044,-5.29166 c -0.89025,-6.11467 -0.94472,-6.21771 -3.28772,-6.21771 -4.27484,0 -11.65135,4.11546 -13.38328,7.46673 -0.48586,0.94016 -0.4907,1.10471 -0.10719,3.65801 0.22085,1.47046 0.34611,2.76331 0.27832,2.87299 -0.0678,0.10969 0.0564,0.7853 0.27596,1.50137 0.21955,0.71607 0.36195,1.71866 0.31639,2.22798 -0.09,1.00621 -14.69917,28.575 -15.14237,28.575 -0.13703,0 -2.39969,-1.2082 -5.02817,-2.6849 -2.62847,-1.4767 -5.31484,-2.98279 -5.96969,-3.34686 -6.60828,-3.67404 -9.68414,-5.44917 -9.8227,-5.66891 -0.091,-0.14427 -0.44572,-2.30091 -0.7883,-4.79254 -0.73647,-5.35672 -0.79978,-5.4672 -3.133671,-5.4672 -4.189519,0 -11.236299,3.78943 -13.164159,7.07907 l -0.702178,1.19817 0.760836,5.51758 0.76081,5.51758 8.48061,4.80024 c 4.664339,2.64013 9.016412,5.10023 9.671252,5.46689 0.65485,0.36665 3.75047,2.11746 6.87917,3.89068 3.1287,1.77322 5.86714,3.2928 6.08542,3.37685 0.87574,0.33721 3.21889,0.16387 4.93307,-0.36494 z m -2.41953,-1.93462 c -0.7276,-0.35031 -7.81182,-4.31919 -15.74271,-8.81974 l -14.419812,-8.18284 -0.709877,-4.73756 c -0.983933,-6.56671 -0.987716,-6.49348 0.406135,-7.88732 2.138363,-2.13837 6.294755,-3.62409 7.651539,-2.73509 0.557688,0.36541 0.673735,0.83655 1.247828,5.06654 0.44569,3.28362 0.755147,4.76886 1.045765,5.01913 0.227039,0.1955 5.592022,3.24935 11.922172,6.78633 6.33016,3.53697 11.75478,6.58866 12.05474,6.78152 0.52413,0.33703 0.8986,-0.30921 9.63649,-16.63108 l 9.09116,-16.98173 -0.63502,-4.51335 c -0.34928,-2.48235 -0.6245,-4.84842 -0.61164,-5.25794 0.0569,-1.81076 4.51077,-4.70879 7.3411,-4.77667 0.80272,-0.0193 1.57581,0.0841 1.71799,0.22959 0.26977,0.27609 1.62185,9.08512 1.62185,10.56659 0,0.61308 -3.06904,6.59978 -11.00535,21.46782 -6.05295,11.33972 -11.29921,21.00651 -11.65833,21.48176 -0.93443,1.23654 -3.12751,2.63702 -5.07929,3.24356 -2.11746,0.65803 -2.26943,0.65334 -3.87474,-0.11952 z m 5.3218,-0.98 c 1.05148,-0.51763 2.14673,-1.32475 2.79771,-2.06168 0.69328,-0.78486 4.96593,-8.50819 12.14128,-21.94685 l 11.07151,-20.73582 -0.66696,-4.79647 c -0.36682,-2.63806 -0.77629,-5.06437 -0.90993,-5.39179 -0.19232,-0.47111 -0.45119,-0.594 -1.24087,-0.58903 -2.01887,0.0127 -5.82829,2.09252 -6.77828,3.7007 -0.44519,0.75367 -0.43614,0.96691 0.24125,5.68223 l 0.70382,4.89916 -7.89499,14.75009 c -4.34226,8.11254 -8.43351,15.76103 -9.09171,16.99663 -0.65818,1.2356 -1.38983,2.2832 -1.62589,2.32799 -0.38833,0.0737 -24.260942,-13.09369 -25.031514,-13.80658 -0.178885,-0.16551 -0.62619,-2.38272 -0.994013,-4.92715 -0.367798,-2.54442 -0.729324,-4.78964 -0.803355,-4.98937 -0.214471,-0.5786 -2.673032,-0.23404 -4.480771,0.62797 -0.866987,0.41341 -2.087378,1.22272 -2.71198,1.79846 -0.938979,0.86552 -1.135009,1.21281 -1.131887,2.00531 0.0058,1.48696 1.242563,9.85171 1.492991,10.09826 0.122661,0.12078 7.069111,4.10232 15.436579,8.84787 15.11874,8.5745 15.22145,8.62743 16.48132,8.49449 0.69728,-0.0736 2.04534,-0.51656 2.99569,-0.98442 z m -38.196301,1.95618 c -0.763985,-0.0534 -2.014141,-0.0534 -2.778125,0 -0.763985,0.0534 -0.138906,0.0972 1.389062,0.0972 1.527969,0 2.153047,-0.0437 1.389063,-0.0972 z m -5.291667,-0.24475 c -0.181901,-0.0734 -0.479557,-0.0734 -0.661458,0 -0.181901,0.0734 -0.03307,0.13346 0.330729,0.13346 0.363802,0 0.51263,-0.0601 0.330729,-0.13346 z m 8.466667,0 c -0.181901,-0.0734 -0.479557,-0.0734 -0.661458,0 -0.181902,0.0734 -0.03307,0.13346 0.330729,0.13346 0.363802,0 0.51263,-0.0601 0.330729,-0.13346 z m -10.335287,-0.27009 c -0.190976,-0.0764 -0.419179,-0.067 -0.5071,0.0209 -0.08792,0.0879 0.06834,0.15046 0.347266,0.13897 0.308213,-0.0127 0.370919,-0.0754 0.159834,-0.15985 z m 10.269141,-0.2041 c 4.064397,-0.61723 8.222853,-2.18381 11.671847,-4.39701 l 1.31525,-0.84399 -6.559706,-3.70649 c -3.607806,-2.03858 -7.512183,-4.25942 -8.676349,-4.93521 l -2.116667,-1.22871 -0.679476,-4.66811 c -0.673497,-4.6269 -0.688102,-4.67763 -1.653646,-5.74639 -0.535782,-0.59305 -0.97417,-1.17128 -0.97417,-1.28495 0,-0.11367 -0.875268,0.65174 -1.945031,1.7009 -3.775948,3.70322 -6.488007,4.99486 -10.090679,4.80577 -1.878965,-0.0986 -2.49391,-0.26413 -4.400788,-1.18445 -1.219147,-0.5884 -3.866674,-2.16524 -5.883434,-3.5041 -2.016734,-1.33886 -3.71819,-2.3829 -3.781002,-2.32009 -0.267441,0.26745 0.754698,5.68731 1.481958,7.85806 1.515269,4.52281 3.40151,7.62027 6.738937,11.06632 3.239665,3.34511 6.966003,5.67082 11.542845,7.2042 4.438703,1.48711 9.306454,1.89857 14.010111,1.18425 z m 1.637109,0.2041 c -0.190976,-0.0764 -0.419179,-0.067 -0.5071,0.0209 -0.08792,0.0879 0.06834,0.15046 0.347266,0.13897 0.308213,-0.0127 0.370919,-0.0754 0.159834,-0.15985 z m -44.846663,-2.47352 c 1.797738,-0.88103 3.090519,-2.17761 2.868533,-2.87699 -0.439579,-1.38499 -0.697944,-5.51969 -0.92747,-14.84167 -0.141499,-5.74807 -0.327369,-10.95794 -0.412988,-11.57749 -0.118348,-0.85618 -0.06144,-1.16261 0.237119,-1.27718 0.324988,-0.12471 5.839857,3.12157 6.956716,4.09501 1.12993,0.98486 8.820732,5.85162 10.61474,6.71705 5.007768,2.41574 9.054147,1.32975 14.149467,-3.79752 1.127786,-1.13485 2.05052,-2.18016 2.05052,-2.3229 0,-0.14275 0.09933,-0.29922 0.220716,-0.34773 0.329009,-0.13148 4.274105,-5.29365 8.054419,-10.53924 5.280157,-7.32674 8.529056,-11.50937 8.940059,-11.50937 0.263843,0 0.474901,0.56482 0.692071,1.85208 0.366129,2.17002 0.564909,3.00309 2.683159,11.24479 1.9032,7.40493 3.21548,11.39617 4.215,12.8196 1.86862,2.66116 5.21052,3.06472 9.74542,1.17684 2.77233,-1.15412 3.34148,-2.03048 2.7486,-4.2322 -0.24132,-0.89625 -0.71776,-1.53265 -2.12833,-2.84289 -2.11109,-1.9609 -2.22391,-2.20933 -4.34409,-9.56593 -1.39586,-4.84328 -1.96398,-7.36642 -3.57838,-15.89253 -0.45633,-2.41005 -0.92247,-4.53203 -1.03587,-4.71549 -0.78201,-1.26532 -7.57113,-1.01472 -9.955424,0.36747 -1.891321,1.09641 -6.627654,7.01758 -14.807327,18.51148 -6.42702,9.0311 -10.379234,13.89865 -11.285035,13.89865 -0.815155,0 -1.641766,-0.50018 -12.654571,-7.65731 -5.748073,-3.73563 -11.099615,-7.06671 -11.892333,-7.40241 -2.270443,-0.96147 -4.058206,-1.01103 -6.526901,-0.18097 -2.564262,0.8622 -4.531756,1.92935 -5.172101,2.80528 -0.472414,0.64619 -0.468418,0.70487 0.17317,2.54293 0.361209,1.03481 0.843571,2.70168 1.071933,3.70417 0.653071,2.86689 0.763111,10.30926 0.280061,18.94235 -0.544274,9.72758 -0.281517,12.15846 1.408721,13.03251 2.23864,1.15765 5.081508,1.10894 7.610396,-0.13039 z m -5.141675,-0.28723 c -1.645602,-0.47523 -1.788054,-1.03255 -1.781069,-6.96812 0.0034,-2.91716 0.107659,-8.81627 0.231617,-13.10914 0.247385,-8.5662 0.08448,-10.42764 -1.288971,-14.7283 -0.844973,-2.64596 -0.837697,-3.10893 0.05892,-3.73708 1.104661,-0.7739 3.662574,-1.64295 4.835736,-1.64295 2.222791,0 2.540688,0.17918 16.122968,9.0883 4.433147,2.90786 8.701723,5.62445 9.485736,6.03686 1.901984,1.0005 3.477736,1.01254 4.885002,0.0373 1.794007,-1.24325 5.706401,-6.1575 12.492672,-15.69164 4.711145,-6.61878 8.58446,-11.73433 10.959651,-14.47463 1.42621,-1.64544 2.121561,-2.23799 2.870284,-2.44592 1.12759,-0.31315 5.3365,-0.36766 5.78132,-0.0749 0.16246,0.10691 0.85754,3.17095 1.54472,6.80897 0.68715,3.63802 1.6016,7.9838 2.03213,9.65729 1.16427,4.52551 3.12555,10.88816 3.58852,11.64166 0.22354,0.36381 1.20623,1.43537 2.18379,2.38125 1.58324,1.53196 1.79636,1.8594 1.9513,2.99794 0.23008,1.69083 -0.0656,2.14895 -1.80784,2.80079 -5.05019,1.88952 -6.65348,0.58118 -8.983,-7.33051 -1.22553,-4.16217 -4.28755,-16.54553 -4.4776,-18.10815 -0.22696,-1.8661 -0.80407,-3.02127 -1.75506,-3.51304 -0.461563,-0.23868 -0.866349,-0.39542 -0.899554,-0.34831 -0.03323,0.0471 -0.784992,0.93905 -1.670606,1.98207 -1.939819,2.28465 -5.106511,6.4727 -9.869355,13.05255 -7.358539,10.1658 -10.847335,14.16118 -13.713857,15.70516 -1.234678,0.66502 -1.619858,0.74401 -3.194129,0.65505 -2.385087,-0.13476 -3.999442,-0.96631 -10.997724,-5.66485 C 51.110699,133.628 47.319722,131.359 46.271628,131.359 c -0.225583,0 -0.438785,0.35166 -0.521282,0.8599 -0.313664,1.93187 0.476462,24.01633 1.059815,29.62279 0.129593,1.24556 0.128985,1.24668 -1.138555,2.05053 -1.349401,0.85575 -2.779501,1.01609 -4.536705,0.50863 z m 4.483921,-0.9618 c 0.928291,-0.61431 1.028859,-0.78278 0.897387,-1.50314 -0.608753,-3.33482 -1.47865,-27.70713 -1.074341,-30.10022 0.113454,-0.67146 0.309722,-1.00585 0.590392,-1.00585 1.04439,0 5.288386,2.46243 12.111672,7.0274 10.511155,7.03225 12.326197,7.79165 15.173775,6.34867 1.818587,-0.92154 5.249545,-4.23289 7.906253,-7.63061 1.162314,-1.48651 4.407244,-5.85791 7.21098,-9.71421 4.602719,-6.33064 7.299643,-9.8352 9.85065,-12.8006 0.870267,-1.01164 0.894582,-1.02073 1.66489,-0.6224 1.388267,0.71789 2.235667,2.20862 2.235667,3.93283 0,0.41229 0.7832,3.86836 1.74041,7.68015 4.11731,16.39595 5.1036,18.45816 8.68574,18.1611 0.76912,-0.0638 1.98231,-0.40535 2.69602,-0.75904 1.28326,-0.63595 1.29747,-0.65685 1.28191,-1.88531 -0.0151,-1.18473 -0.11332,-1.34392 -2.1249,-3.43958 l -2.10917,-2.19736 -1.28474,-4.23045 c -1.81848,-5.98796 -2.84356,-10.22668 -4.142,-17.12744 -0.62217,-3.30663 -1.21483,-6.14733 -1.31702,-6.31267 -0.25823,-0.41781 -2.30155,-0.60872 -4.13734,-0.38655 -1.47184,0.17813 -1.617842,0.26756 -3.40042,2.08307 -2.206731,2.24752 -5.435653,6.4264 -10.972006,14.20008 -8.93101,12.54012 -12.393454,16.6423 -14.515491,17.1975 -0.869236,0.22743 -1.471586,0.22688 -2.426574,-0.002 -1.28979,-0.30942 -2.534708,-1.07894 -16.259518,-10.05054 -7.472495,-4.8847 -8.988902,-5.68648 -10.717002,-5.6666 -1.282223,0.0148 -3.70451,0.86708 -4.740327,1.66796 l -0.639287,0.49428 0.812033,2.47924 c 0.44659,1.36358 0.964618,3.37221 1.151176,4.46361 0.448654,2.62489 0.447913,9.97724 -0.0026,18.04739 -0.49874,8.94861 -0.234024,11.50038 1.252643,12.07529 1.817344,0.70277 3.072712,0.58711 4.600417,-0.42388 z m 20.054808,-2.54661 c 0,-0.0549 -0.208359,-0.2633 -0.463021,-0.46302 -0.419629,-0.3291 -0.428995,-0.31974 -0.09988,0.0999 0.345625,0.44073 0.562901,0.58089 0.562901,0.36313 z m -2.910417,-2.91041 c 0,-0.0549 -0.208359,-0.2633 -0.46302,-0.46302 -0.41963,-0.32911 -0.428996,-0.31975 -0.09988,0.0999 0.345626,0.44073 0.562901,0.58088 0.562901,0.36312 z m 102.289054,-4.06178 c -0.0879,-0.0879 -0.15045,0.0683 -0.13896,0.34726 0.0127,0.30823 0.0754,0.37092 0.15983,0.15986 0.0764,-0.191 0.067,-0.4192 -0.0209,-0.50712 z m -35.00507,-14.36275 7.35582,-13.75225 -0.25855,-1.39863 c -0.14219,-0.76924 -0.66538,-2.28785 -1.16261,-3.37468 -3.18606,-6.964 -8.98321,-13.37595 -15.66511,-17.3264 -1.60771,-0.9505 -2.25438,-1.18688 -3.2554,-1.18995 -0.68702,-0.002 -10.65509,0.54485 -22.151259,1.21547 l -20.902083,1.21931 -1.719792,1.20706 c -2.677504,1.87925 -7.853468,7.23824 -9.761061,10.10623 -2.499572,3.75805 -4.260109,7.44154 -5.404432,11.30749 l -0.405977,1.37153 6.661256,4.34928 c 7.49001,4.89038 8.236744,5.31836 8.762868,5.0222 1.081908,-0.60898 5.371756,-6.11278 11.917204,-15.28953 7.843784,-10.99704 11.678814,-15.72885 13.706104,-16.91112 1.496484,-0.87271 4.232372,-1.3087 7.228702,-1.15197 3.51885,0.18406 3.55656,0.22086 4.30967,4.20647 2.16625,11.46435 3.05321,15.1805 5.33013,22.33199 0.81466,2.55873 0.89689,2.69219 2.76591,4.48921 1.40377,1.3497 2.00567,2.13916 2.219,2.91042 0.77026,2.78493 0.0524,3.90209 -3.3996,5.29039 l -2.24007,0.90089 -0.34279,1.50936 c -0.18855,0.83015 -0.2726,1.58023 -0.18683,1.66686 0.30279,0.30579 8.7176,5.02219 8.97848,5.03234 0.14552,0.006 3.57471,-6.17822 7.62042,-13.74197 z m 35.53423,11.9815 c -0.0879,-0.0879 -0.15044,0.0684 -0.13896,0.34726 0.0127,0.30823 0.0754,0.37092 0.15984,0.15986 0.0764,-0.191 0.067,-0.4192 -0.0209,-0.50712 z M 29.585577,150.21607 c -0.08792,-0.0879 -0.150442,0.0683 -0.138959,0.34727 0.0127,0.30822 0.07538,0.37092 0.159861,0.15985 0.07641,-0.191 0.06702,-0.4192 -0.0209,-0.50712 z m 136.275813,-0.1378 c -0.0734,-0.1819 -0.13346,-0.0331 -0.13346,0.33073 0,0.3638 0.0601,0.51263 0.13346,0.33073 0.0734,-0.1819 0.0734,-0.47956 0,-0.66146 z m -136.540396,-1.4497 c -0.08792,-0.0879 -0.150442,0.0684 -0.138959,0.34727 0.0127,0.30822 0.07538,0.37092 0.159861,0.15985 0.07641,-0.191 0.06702,-0.4192 -0.0209,-0.50712 z m 136.804976,-0.1378 c -0.0734,-0.1819 -0.13345,-0.0331 -0.13345,0.33073 0,0.3638 0.0601,0.51263 0.13345,0.33073 0.0734,-0.1819 0.0734,-0.47956 0,-0.66146 z M 29.070116,146.63365 c -0.07247,-0.17913 -0.127371,0.0315 -0.121973,0.46806 0.0053,0.43656 0.06469,0.58312 0.131762,0.32569 0.0671,-0.25743 0.06268,-0.61462 -0.0098,-0.79375 z m 83.806264,-0.60124 0.1755,-0.80472 -1.7956,-0.0165 c -2.1541,-0.0197 -3.59915,-0.66078 -4.81655,-2.13676 -1.28807,-1.56162 -2.53741,-5.23511 -4.6595,-13.70061 -0.693,-2.76448 -1.41607,-5.19583 -1.60689,-5.40299 -0.244103,-0.26504 -1.196735,-0.41166 -3.215056,-0.49482 l -2.868163,-0.11817 -3.655139,5.07816 c -2.010331,2.79299 -4.642909,6.34614 -5.850202,7.89589 -2.135532,2.74126 -2.185009,2.83721 -1.823747,3.53582 0.510461,0.9871 0.904267,1.17405 0.904267,0.42926 0,-1.7113 3.295147,-4.74839 7.394363,-6.81529 4.44119,-2.23934 8.585147,-2.66372 9.646157,-0.98787 0.20367,0.32171 0.63682,2.54945 0.96257,4.95055 0.32573,2.40109 0.7243,4.50272 0.88575,4.67028 0.16142,0.16756 2.43543,1.50308 5.05338,2.96783 5.14419,2.87818 4.85944,2.82685 5.26886,0.94988 z m 53.51417,0.60627 c -0.0734,-0.1819 -0.13345,-0.0331 -0.13345,0.33073 0,0.36381 0.0601,0.51263 0.13345,0.33073 0.0734,-0.1819 0.0734,-0.47956 0,-0.66146 z m -52.93203,-1.44969 c -0.0879,-0.0879 -0.15045,0.0684 -0.13896,0.34726 0.0127,0.30823 0.0754,0.37092 0.15983,0.15985 0.0764,-0.19099 0.0671,-0.4192 -0.0209,-0.50711 z M 28.821831,143.8642 c -0.0608,-0.40219 -0.112184,-0.13593 -0.114168,0.59167 -0.0026,0.7276 0.04776,1.05666 0.110569,0.73124 0.06279,-0.32542 0.06443,-0.92073 0.0037,-1.32291 z m 137.840479,0.52552 c -0.0666,-0.25466 -0.12102,-0.0463 -0.12102,0.46303 0,0.50932 0.0545,0.71768 0.12102,0.46302 0.0665,-0.25467 0.0665,-0.67138 0,-0.92605 z M 55.779328,143.60149 c -0.08792,-0.0879 -0.150442,0.0683 -0.13896,0.34726 0.0127,0.30823 0.07538,0.37092 0.159835,0.15985 0.07644,-0.19099 0.06705,-0.4192 -0.0209,-0.50711 z m 111.154232,-2.92067 c -0.0604,-0.39758 -0.10856,-0.008 -0.10708,0.86463 0.003,0.87313 0.0509,1.19842 0.10978,0.72287 0.0589,-0.47555 0.0576,-1.18992 -0.003,-1.5875 z m -111.403443,1.19536 c -0.0734,-0.1819 -0.133456,-0.0331 -0.133456,0.33073 0,0.3638 0.06006,0.51263 0.133456,0.33073 0.07339,-0.1819 0.07339,-0.47956 0,-0.66146 z M 83.6653,141.58646 c 0,-0.0502 -0.267891,-0.3181 -0.595313,-0.59531 l -0.595312,-0.50403 0.504031,0.59531 c 0.473657,0.55945 0.686594,0.71576 0.686594,0.50403 z m -55.106518,-2.62069 c -0.05869,-0.47295 -0.106707,-0.086 -0.106707,0.85989 0,0.94589 0.04802,1.33284 0.106707,0.8599 0.05871,-0.47294 0.05871,-1.24685 0,-1.71979 z m 26.713921,0.39687 c -0.06657,-0.25466 -0.12102,-0.0463 -0.12102,0.46302 0,0.50933 0.05445,0.71768 0.12102,0.46302 0.06654,-0.25466 0.06654,-0.67138 0,-0.92604 z m -26.453994,-4.89479 c -0.06308,-0.32742 -0.114671,-0.0595 -0.114671,0.59531 0,0.65485 0.05159,0.92274 0.114671,0.59531 0.06305,-0.32742 0.06305,-0.8632 0,-1.19062 z m 138.114851,-2.78286 c -0.0604,-0.39758 -0.10856,-0.008 -0.10708,0.86463 0.003,0.87313 0.0509,1.19841 0.10978,0.72287 0.0589,-0.47555 0.0576,-1.18993 -0.003,-1.5875 z m -137.863444,0.13199 c -0.07247,-0.17913 -0.127371,0.0315 -0.121973,0.46806 0.0053,0.43656 0.06469,0.58312 0.131762,0.32569 0.0671,-0.25743 0.06268,-0.61462 -0.0098,-0.79375 z m 0.250878,-1.70924 c -0.08792,-0.0879 -0.150442,0.0683 -0.138959,0.34726 0.0127,0.30823 0.07538,0.37092 0.159861,0.15985 0.07641,-0.19099 0.06702,-0.4192 -0.0209,-0.50711 z m 137.341316,-1.06385 c -0.0666,-0.25466 -0.12102,-0.0463 -0.12102,0.46302 0,0.50933 0.0545,0.71768 0.12102,0.46302 0.0665,-0.25466 0.0665,-0.67138 0,-0.92604 z M 29.585577,128.52024 c -0.08792,-0.0879 -0.150442,0.0684 -0.138959,0.34726 0.0127,0.30823 0.07538,0.37092 0.159861,0.15985 0.07641,-0.19099 0.06702,-0.41919 -0.0209,-0.50711 z m 0.264584,-1.32292 c -0.08792,-0.0879 -0.150442,0.0683 -0.138959,0.34726 0.0127,0.30823 0.07538,0.37092 0.159861,0.15986 0.07641,-0.191 0.06702,-0.4192 -0.0209,-0.50712 z m 136.540389,-0.1378 c -0.0734,-0.1819 -0.13345,-0.0331 -0.13345,0.33073 0,0.3638 0.0601,0.51263 0.13345,0.33072 0.0734,-0.1819 0.0734,-0.47955 0,-0.66145 z m -0.26458,-1.85209 c -0.0734,-0.1819 -0.13345,-0.0331 -0.13345,0.33073 0,0.3638 0.0601,0.51263 0.13345,0.33073 0.0734,-0.1819 0.0734,-0.47956 0,-0.66146 z m -0.27995,-1.44969 c -0.0879,-0.0879 -0.15045,0.0683 -0.13896,0.34726 0.0127,0.30823 0.0754,0.37092 0.15983,0.15985 0.0764,-0.19099 0.0671,-0.41919 -0.0209,-0.50711 z m -65.72694,-0.51698 c -0.190981,-0.0764 -0.419184,-0.067 -0.507105,0.0209 -0.08792,0.0879 0.06834,0.15045 0.347266,0.13896 0.308209,-0.0127 0.370949,-0.0754 0.159839,-0.15985 z m -5.027088,-0.26459 c -0.190976,-0.0764 -0.419179,-0.067 -0.5071,0.0209 -0.08792,0.0879 0.06834,0.15046 0.347266,0.13897 0.308213,-0.0127 0.370919,-0.0754 0.159834,-0.15985 z m 3.318801,-0.003 c -0.257439,-0.0671 -0.614627,-0.0627 -0.79375,0.01 -0.179122,0.0725 0.03149,0.12737 0.468048,0.12197 0.436563,-0.005 0.583142,-0.0647 0.325702,-0.13177 z m 67.170637,-0.53874 c -0.0879,-0.0879 -0.15044,0.0683 -0.13896,0.34727 0.0127,0.30823 0.0754,0.37092 0.15984,0.15985 0.0764,-0.19099 0.067,-0.4192 -0.0209,-0.50712 z m -65.51196,0.30253 c 0,-0.0853 -0.175211,-0.88892 -0.389391,-1.78593 -0.214154,-0.89701 -0.482044,-2.14161 -0.595312,-2.76576 l -0.205926,-1.13483 -1.852083,2.42493 c -2.477876,3.24429 -2.432076,3.14591 -1.393269,2.99253 0.70948,-0.10476 1.808321,-0.003 4.23754,0.39181 0.10914,0.0177 0.198441,-0.0375 0.198441,-0.12275 z m 37.04168,-1.1679 c 0,-0.14552 -0.12607,-0.26459 -0.28019,-0.26459 -0.15409,0 -0.20661,0.11907 -0.11668,0.26459 0.20955,0.33903 0.39687,0.33903 0.39687,0 z m -73.025017,-8.06984 c 0.18116,-0.21828 0.269849,-0.39687 0.197088,-0.39687 -0.07276,0 -0.280511,0.17859 -0.461671,0.39687 -0.181161,0.21828 -0.269849,0.39688 -0.197088,0.39688 0.07276,0 0.280511,-0.1786 0.461671,-0.39688 z m 1.5875,-1.85208 c 0.341789,-0.3638 0.561896,-0.66146 0.489135,-0.66146 -0.07276,0 -0.41193,0.29766 -0.753718,0.66146 -0.341763,0.3638 -0.561869,0.66146 -0.489109,0.66146 0.07276,0 0.41193,-0.29766 0.753692,-0.66146 z m 63.896897,-1.19063 c -0.41825,-0.43656 -0.81997,-0.79375 -0.89273,-0.79375 -0.0728,0 0.20989,0.35719 0.62815,0.79375 0.41825,0.43656 0.81999,0.79375 0.89275,0.79375 0.0728,0 -0.20992,-0.35719 -0.62817,-0.79375 z m -1.19063,-1.13872 c 0,-0.0442 -0.44648,-0.4907 -0.99218,-0.99219 l -0.99219,-0.9118 0.91181,0.99219 c 0.84867,0.92351 1.07256,1.11384 1.07256,0.9118 z m -59.531267,-0.84565 c 0.341789,-0.3638 0.561896,-0.66146 0.489135,-0.66146 -0.07276,0 -0.41193,0.29766 -0.753718,0.66146 -0.341763,0.3638 -0.561869,0.66146 -0.489109,0.66146 0.07276,0 0.41193,-0.29766 0.753692,-0.66146 z m 1.852083,-1.5875 c 0.181161,-0.21828 0.269849,-0.39688 0.197088,-0.39688 -0.07276,0 -0.280511,0.1786 -0.461671,0.39688 -0.18116,0.21828 -0.269849,0.39687 -0.197088,0.39687 0.07276,0 0.280511,-0.17859 0.461671,-0.39687 z M 95.57155,83.336095 c 20.15466,-1.094486 37.28622,-2.058617 38.07012,-2.142516 l 1.42529,-0.152546 -1.68987,-0.940993 c -6.27359,-3.493384 -14.68967,-6.267561 -23.12114,-7.621389 -3.63776,-0.58411 -12.991146,-0.803273 -16.961061,-0.397423 -9.249092,0.945552 -17.201197,3.228337 -25.372298,7.283521 -4.324429,2.14616 -10.392198,5.938118 -9.525,5.952525 0.291042,0.0048 17.019323,-0.886696 37.173959,-1.981179 z M 84.508659,72.969924 c -0.190976,-0.07643 -0.419179,-0.06703 -0.5071,0.02088 -0.08792,0.08792 0.06834,0.150453 0.347265,0.138965 0.308213,-0.0127 0.37092,-0.07539 0.159835,-0.159853 z m 1.322917,-0.264584 c -0.190977,-0.07643 -0.41918,-0.06703 -0.507101,0.02088 -0.08792,0.08792 0.06834,0.150453 0.347266,0.138965 0.308213,-0.0127 0.370919,-0.07539 0.159835,-0.159854 z m 1.322916,-0.264583 c -0.190976,-0.07643 -0.419179,-0.06703 -0.5071,0.02088 -0.08792,0.08792 0.06834,0.150452 0.347266,0.138964 0.308213,-0.0127 0.370919,-0.07539 0.159834,-0.159853 z m 1.5875,-0.264583 c -0.190976,-0.07643 -0.419179,-0.06703 -0.5071,0.02088 -0.08792,0.08792 0.06834,0.150453 0.347266,0.138965 0.308213,-0.0127 0.370919,-0.07539 0.159834,-0.159853 z m 23.035308,0.0055 c -0.1819,-0.0734 -0.47956,-0.0734 -0.66146,0 -0.1819,0.0734 -0.0331,0.133453 0.33073,0.133453 0.3638,0 0.51263,-0.06006 0.33073,-0.133453 z M 90.737877,71.908968 c -0.25744,-0.06708 -0.614627,-0.06267 -0.79375,0.0098 -0.179123,0.07248 0.03149,0.127363 0.468048,0.121971 0.436562,-0.0054 0.583141,-0.06469 0.325702,-0.131773 z m 19.187343,0.0081 c -0.1819,-0.0734 -0.47956,-0.0734 -0.66146,0 -0.1819,0.0734 -0.0331,0.133453 0.33073,0.133453 0.3638,0 0.51263,-0.06005 0.33073,-0.133453 z M 93.124154,71.645351 c -0.254662,-0.06655 -0.67138,-0.06655 -0.926042,0 -0.254661,0.06655 -0.0463,0.121002 0.463021,0.121002 0.509323,0 0.717682,-0.05445 0.463021,-0.121002 z m 14.816686,0 c -0.25466,-0.06655 -0.67138,-0.06655 -0.92604,0 -0.25466,0.06655 -0.0463,0.121002 0.46302,0.121002 0.50932,0 0.71768,-0.05445 0.46302,-0.121002 z M 97.629082,71.37083 c -0.541867,-0.05685 -1.494367,-0.05764 -2.116667,-0.0018 -0.622326,0.05589 -0.17899,0.102407 0.985176,0.103367 1.164167,0.0011 1.673331,-0.04477 1.131491,-0.101621 z m 7.143768,0 c -0.54186,-0.05685 -1.49436,-0.05764 -2.11666,-0.0018 -0.62233,0.05589 -0.17899,0.102407 0.98517,0.103367 1.16417,0.0011 1.67333,-0.04477 1.13149,-0.101621 z M 68.780212,193.50645 c -2.683854,-4.70169 -6.033664,-11.19818 -5.963338,-11.56505 0.0657,-0.34271 0.506492,-0.48575 1.933945,-0.6276 1.016873,-0.10105 1.930268,-0.10105 2.029751,0 0.09951,0.10105 1.092174,1.91013 2.205964,4.02018 1.11379,2.11006 2.111878,3.92773 2.217975,4.03927 0.106072,0.11155 0.70493,-1.73392 1.330749,-4.10104 0.625819,-2.36712 1.236636,-4.41062 1.357365,-4.54112 0.12073,-0.1305 1.135936,-0.29608 2.255996,-0.36797 l 2.036498,-0.13069 -0.190923,0.76484 c -0.673576,2.69819 -3.655483,12.97 -3.811085,13.12803 -0.104166,0.1058 -1.213326,0.27106 -2.464779,0.36726 l -2.27539,0.1749 z m 4.872725,0.0618 c 0.187272,-0.17693 3.698558,-12.5196 3.591931,-12.62622 -0.03519,-0.0352 -0.70739,0.0159 -1.493732,0.11346 l -1.429729,0.17746 -1.136518,4.23334 c -0.625078,2.32833 -1.20388,4.50122 -1.286219,4.82864 -0.08234,0.32742 -0.296254,0.59423 -0.475377,0.59291 -0.179122,-0.001 -1.383003,-2.02538 -2.675281,-4.49792 l -2.349579,-4.49551 -1.090004,0.004 c -2.030228,0.008 -2.030863,0.004 1.043569,5.71244 1.559216,2.89504 2.996777,5.52714 3.194553,5.84911 0.331258,0.53924 0.500486,0.57307 2.145956,0.42905 0.982504,-0.086 1.864677,-0.23036 1.96043,-0.32082 z m 7.02699,-1.15665 c -0.558007,-4.27189 -1.338395,-12.10244 -1.218116,-12.22273 0.2617,-0.2617 4.203409,-0.49742 4.205791,-0.25151 0,0.13049 0.298926,2.79115 0.661458,5.91258 0.780627,6.72116 0.799491,7.31109 0.240638,7.52554 -0.230161,0.0883 -1.166495,0.1606 -2.080683,0.1606 h -1.662192 z m 3.702102,0.22788 c 0.0304,-0.0285 -0.257915,-2.79329 -0.640688,-6.14403 l -0.695934,-6.09226 -1.475978,0.11698 c -0.811794,0.0643 -1.494128,0.13197 -1.516274,0.15029 -0.02222,0.0183 0.271807,2.81199 0.65323,6.20814 l 0.693499,6.17481 1.463437,-0.18107 c 0.804889,-0.0996 1.488308,-0.20438 1.518708,-0.23286 z m 3.67538,-0.19121 c -0.307022,-1.4448 -1.481455,-12.75895 -1.339162,-12.90124 0.197327,-0.19732 4.135279,-0.52894 4.487678,-0.37791 0.145521,0.0624 1.380252,1.65909 2.743835,3.54827 1.363556,1.88918 2.533279,3.38083 2.599346,3.31476 0.06607,-0.0661 -0.07276,-1.69832 -0.308478,-3.62723 -0.349065,-2.85642 -0.364993,-3.54744 -0.0858,-3.72455 0.188515,-0.11959 1.127627,-0.21926 2.086901,-0.22149 l 1.744159,-0.004 0.438972,3.77031 c 0.84409,7.25029 1.0542,9.46042 0.91273,9.60189 -0.0784,0.0784 -1.13998,0.20912 -2.358997,0.29047 l -2.216414,0.1479 -2.610512,-3.61126 c -1.435761,-1.9862 -2.642764,-3.57553 -2.682213,-3.53185 -0.03942,0.0437 0.115384,1.7145 0.344011,3.71295 0.228626,1.99844 0.357082,3.69213 0.285459,3.76375 -0.07162,0.0716 -0.980043,0.20921 -2.018718,0.30575 -1.83941,0.17095 -1.891983,0.15909 -2.022793,-0.45647 z m 3.438393,-0.9881 c -0.07583,-0.38622 -0.264477,-1.89284 -0.419232,-3.34805 -0.154755,-1.45521 -0.348245,-3.09232 -0.429974,-3.63802 -0.271595,-1.81312 0.530516,-1.1239 3.620558,3.11099 l 2.993945,4.10319 1.734926,-0.17061 c 0.954194,-0.0938 1.751115,-0.1841 1.770885,-0.20058 0.0198,-0.0165 -0.27969,-2.76841 -0.66551,-6.11539 l -0.701409,-6.08541 -1.299554,0.0688 c -0.714772,0.0379 -1.351095,0.12039 -1.414092,0.18337 -0.06297,0.063 0.07715,1.78951 0.311388,3.83671 0.234262,2.0472 0.4259,3.89945 0.4259,4.11611 0,1.02919 -0.960332,0.0725 -3.605292,-3.59169 l -2.877,-3.98561 -1.691296,0.14272 c -0.930222,0.0785 -1.74625,0.19764 -1.813374,0.26479 -0.108321,0.10832 0.794517,8.88081 1.159642,11.26788 l 0.141658,0.92604 1.447879,-0.0915 c 1.408536,-0.089 1.444096,-0.1106 1.309952,-0.79375 z m -33.070376,-1.11697 -0.172085,-1.07621 -0.885138,0.54704 c -1.104159,0.68241 -1.652508,0.69206 -2.004007,0.0353 -0.415448,-0.7763 -0.352028,-0.91331 0.680376,-1.46929 l 0.954247,-0.5139 -1.086538,-0.46146 c -1.147022,-0.48713 -1.313233,-0.86577 -0.730144,-1.6632 0.363325,-0.49685 0.54864,-0.47659 2.363734,0.25838 0.420661,0.17034 0.452702,0.0754 0.298979,-0.88598 -0.160231,-1.00205 -0.124116,-1.08882 0.520436,-1.25059 1.082146,-0.27161 1.487514,0.0188 1.487514,1.06556 0,0.51389 0.06572,0.93434 0.146023,0.93434 0.08033,0 0.603409,-0.26324 1.162421,-0.58497 0.86106,-0.49556 1.081378,-0.53105 1.441476,-0.23218 0.66892,0.55513 0.502259,1.30716 -0.413014,1.86377 l -0.838095,0.50968 1.102678,0.4412 c 1.181259,0.47264 1.321117,0.77947 0.724826,1.58995 -0.361738,0.49168 -0.429498,0.49524 -1.5875,0.0834 l -1.209649,-0.43023 v 1.15783 c 0,1.1385 -0.01482,1.15784 -0.892228,1.15784 -0.838782,0 -0.90252,-0.0644 -1.064312,-1.07621 z m 1.32834,-0.7599 c -0.09168,-0.5733 -0.06003,-1.10828 0.0703,-1.18883 0.130334,-0.0806 0.740886,0.0313 1.356757,0.24861 1.303814,0.46002 1.675527,0.49523 1.454626,0.13779 -0.08747,-0.14151 -0.630264,-0.39848 -1.206235,-0.57105 -1.292411,-0.38721 -1.329637,-0.87497 -0.121206,-1.58797 0.509323,-0.30051 0.926042,-0.65368 0.926042,-0.78483 0,-0.34101 -0.145336,-0.30335 -1.118077,0.28973 -1.316355,0.80259 -1.746064,0.6996 -1.842505,-0.44158 -0.125201,-1.48144 -0.743585,-1.46177 -0.743585,0.0237 0,0.66697 -0.104087,1.21267 -0.231299,1.21267 -0.127238,0 -0.737526,-0.17859 -1.356201,-0.39687 -1.313789,-0.46354 -1.322917,-0.46474 -1.322917,-0.17464 0,0.12223 0.488924,0.38358 1.086459,0.58079 1.024043,0.33797 1.684893,1.05006 1.143952,1.23268 -0.746918,0.25216 -2.051446,1.23658 -1.767866,1.33409 0.18161,0.0624 0.7502,-0.146 1.263491,-0.46323 1.1997,-0.74147 1.713548,-0.54445 1.713548,0.657 0,0.68675 0.114141,0.93435 0.430688,0.93435 0.353193,0 0.400712,-0.18757 0.264028,-1.04236 z m 48.125664,1.49114 c -0.055,-0.17407 -0.22362,-1.43404 -0.3747,-2.79993 -0.15269,-1.38021 -0.44003,-2.67312 -0.64688,-2.91042 -0.20468,-0.23483 -1.57768,-1.78999 -3.0511,-3.45591 -1.47341,-1.66592 -2.67893,-3.16838 -2.67893,-3.33882 0,-0.35412 1.4151,-0.63652 3.21088,-0.64079 1.19517,-0.003 1.27026,0.0471 2.94119,1.95536 l 1.71471,1.95826 1.24682,-2.23915 c 0.68577,-1.23153 1.38629,-2.28143 1.55673,-2.33312 0.17044,-0.0517 1.17308,-0.15648 2.22811,-0.23288 1.63068,-0.1181 1.91823,-0.0762 1.91823,0.27922 0,0.22999 -0.96735,2.09829 -2.14964,4.1518 l -2.14966,3.73364 0.28126,2.77813 c 0.1547,1.52797 0.19931,2.85228 0.0991,2.94292 -0.10017,0.0906 -1.05154,0.23306 -2.11413,0.31649 -1.38128,0.10845 -1.96051,0.0615 -2.03203,-0.1648 z m 3.46126,-0.78385 c 0.0809,-0.0809 0.0132,-1.26743 -0.15024,-2.63679 l -0.29725,-2.48973 2.11124,-3.68084 c 1.16117,-2.02445 2.06504,-3.72703 2.00858,-3.78349 -0.0565,-0.0565 -0.76239,-0.0202 -1.56871,0.0805 l -1.46606,0.18317 -1.25801,2.2628 c -0.69191,1.24454 -1.40121,2.31818 -1.57623,2.38586 -0.175,0.0677 -0.71078,-0.33374 -1.19063,-0.89206 -0.47982,-0.55832 -1.34868,-1.51981 -1.93077,-2.13665 l -1.05833,-1.12153 -1.52006,0.16567 -1.52008,0.16567 2.18694,2.41051 c 4.01706,4.42772 3.80674,4.09129 4.0109,6.41608 0.27551,3.13726 0.24667,3.08931 1.77059,2.94288 0.71559,-0.0687 1.36723,-0.19119 1.44812,-0.27206 z m 7.24278,0.004 c -0.004,-0.0364 -0.35158,-2.98318 -0.7729,-6.54844 -0.88935,-7.52567 -0.98756,-7.14375 1.83684,-7.14375 h 1.74969 l 0.57552,5.06573 c 0.31655,2.78615 0.61079,5.10096 0.65384,5.14402 0.0431,0.0431 1.3562,-0.0462 2.91806,-0.1984 1.56189,-0.15218 3.01739,-0.20854 3.23446,-0.12525 0.51247,0.19666 0.57224,3.0768 0.064,3.08162 -0.18191,0.002 -2.23573,0.17983 -4.56407,0.39579 -4.0658,0.37713 -5.68071,0.47032 -5.69539,0.32868 z m 5.91907,-1.01978 4.1924,-0.31548 -0.1575,-0.78758 c -0.0866,-0.43317 -0.15754,-0.86266 -0.15754,-0.95442 0,-0.0918 -1.38189,-0.0606 -3.07091,0.0692 -2.25086,0.17302 -3.12102,0.15492 -3.25866,-0.0678 -0.10327,-0.16709 -0.40405,-2.37477 -0.66836,-4.90593 -0.26432,-2.53117 -0.56518,-4.73901 -0.66858,-4.90631 -0.24207,-0.39168 -2.9183,-0.0661 -2.91327,0.35445 0.003,0.16315 0.29871,2.79695 0.65947,5.85289 0.36076,3.05594 0.65683,5.70735 0.65791,5.89202 0,0.20877 0.22717,0.28824 0.5973,0.2101 0.32742,-0.0691 2.4819,-0.26765 4.78774,-0.44116 z m 6.40914,-0.79749 c -0.0831,-0.49209 -0.44577,-3.50882 -0.80593,-6.70384 -0.51014,-4.52564 -0.58316,-5.85467 -0.33043,-6.01522 0.55329,-0.35152 3.89935,-0.2546 4.02354,0.11654 0.18153,0.54236 1.529,12.91783 1.41859,13.02827 -0.0559,0.0559 -1.01362,0.18433 -2.12817,0.28533 l -2.0265,0.18363 z m 3.53594,-0.13929 c 0.16092,-0.14415 -1.11331,-11.68972 -1.3286,-12.03806 -0.24086,-0.3897 -2.88703,-0.017 -2.88703,0.40663 0,0.17551 0.29662,2.87301 0.65918,5.99444 0.36253,3.12143 0.66019,5.74714 0.66146,5.83492 0.003,0.16616 2.69396,-0.0179 2.89499,-0.19792 z m 8.48437,-0.0125 c -4.02143,-0.67488 -6.21771,-3.22704 -6.21771,-7.22526 0,-1.62607 0.11943,-2.19713 0.66146,-3.16264 1.53368,-2.73199 5.0048,-4.11086 9.06991,-3.60295 1.99589,0.24936 2.30347,0.53845 2.48939,2.3397 0.17283,1.67444 0.11483,1.72313 -1.33202,1.1186 -1.39496,-0.58285 -3.81426,-0.51398 -4.88537,0.13907 -2.49074,1.51855 -1.93908,5.94373 0.87492,7.01841 1.40772,0.5376 2.58797,0.38231 4.56549,-0.60069 0.76431,-0.37991 1.43741,-0.64139 1.49583,-0.58107 0.0584,0.0603 0.18983,0.78545 0.29207,1.61137 l 0.18584,1.50168 -1.02862,0.52476 c -1.64758,0.84054 -4.29212,1.23437 -6.17119,0.91902 z m 5.22552,-1.26064 c 1.0414,-0.43141 1.12448,-0.53945 1.12448,-1.46224 v -0.99641 l -1.12448,0.55683 c -0.68514,0.33927 -1.79642,0.59367 -2.84427,0.65115 -1.46206,0.0802 -1.85492,0.002 -2.62149,-0.52387 -1.56742,-1.0746 -1.99036,-1.88732 -2.08418,-4.00507 -0.0975,-2.20038 0.39632,-3.29806 1.81332,-4.03081 1.19166,-0.61622 3.33209,-0.75936 4.75239,-0.31781 l 1.19857,0.37263 -0.10517,-0.90101 c -0.13341,-1.14259 -0.84297,-1.45378 -3.35032,-1.46932 -4.64735,-0.0288 -7.54062,2.36201 -7.54062,6.23111 0,2.90303 1.50534,5.14509 4.12506,6.14391 1.3766,0.52486 5.12726,0.38452 6.65671,-0.24909 z m 5.81133,-4.0118 c -0.1039,-0.10391 -0.18894,-0.58581 -0.18894,-1.07088 0,-0.48507 -0.0657,-0.88194 -0.14599,-0.88194 -0.0803,0 -0.60341,0.26324 -1.16245,0.58497 -0.86106,0.49556 -1.08135,0.53105 -1.44148,0.23218 -0.66439,-0.5514 -0.50286,-1.24509 0.42704,-1.83386 l 0.85209,-0.53952 -0.78594,-0.28807 c -0.43228,-0.15843 -0.9348,-0.34033 -1.1167,-0.40421 -0.43723,-0.15353 -0.41905,-0.70456 0.0442,-1.33802 0.36168,-0.49464 0.41751,-0.49687 1.5875,-0.0632 l 1.21261,0.44943 v -1.17795 c 0,-1.16135 0.0127,-1.17796 0.89223,-1.17796 0.83939,0 0.90246,0.064 1.06502,1.08053 l 0.17278,1.08053 0.93448,-0.55136 c 1.21856,-0.71896 1.6437,-0.69546 2.01123,0.11121 0.34205,0.7507 0.37856,0.68648 -0.78997,1.38934 l -0.87363,0.52547 1.07207,0.42896 c 1.13395,0.45372 1.29614,0.81937 0.71562,1.61328 -0.361,0.49372 -0.5673,0.47241 -2.31312,-0.23897 -0.34761,-0.14164 -0.41648,0.0259 -0.39688,0.96513 0.0225,1.07821 -0.0175,1.14054 -0.77954,1.21519 -0.4418,0.0433 -0.88828,-0.006 -0.99219,-0.11024 z m 1.13398,-1.82053 c 0,-1.3124 0.11224,-1.37194 1.49603,-0.79375 1.06971,0.44696 1.41439,0.49252 1.41439,0.18697 0,-0.11545 -0.4989,-0.39182 -1.10871,-0.61415 -0.60979,-0.22234 -1.15335,-0.53819 -1.20793,-0.7019 -0.0546,-0.1637 0.39608,-0.61031 1.00142,-0.99244 1.38742,-0.87584 1.148,-1.22204 -0.28726,-0.41539 -1.34413,0.75545 -1.83711,0.58645 -1.83711,-0.62979 0,-0.67712 -0.11565,-0.93434 -0.42013,-0.93434 -0.34351,0 -0.38753,0.19286 -0.2414,1.05775 0.21875,1.29485 -0.13981,1.51442 -1.52676,0.93492 -1.10053,-0.45983 -1.51587,-0.50777 -1.51587,-0.17497 0,0.12661 0.53578,0.3802 1.19062,0.56355 1.46545,0.41029 1.5579,1.0048 0.26459,1.70129 -0.50933,0.27429 -0.92605,0.59902 -0.92605,0.72162 0,0.34841 0.3305,0.2634 1.19063,-0.30624 1.21235,-0.80291 1.71979,-0.69882 1.71979,0.35277 0,0.48507 0.0794,0.96132 0.1764,1.05834 0.42042,0.42041 0.61735,0.0969 0.61735,-1.01424 z M 60.791779,101.39491 c -0.211216,-0.67979 -0.876194,-12.50854 -0.712575,-12.675084 0.09377,-0.09544 1.122971,-0.214501 2.287137,-0.264584 l 2.116667,-0.09106 1.50114,2.910417 c 0.916464,1.776875 1.557205,2.755842 1.6451,2.513542 0.07922,-0.218282 0.558932,-1.571943 1.066059,-3.008133 0.507127,-1.436193 0.969751,-2.658964 1.028039,-2.71727 0.05831,-0.0583 1.073017,-0.180578 2.254937,-0.271722 1.71286,-0.132085 2.173844,-0.09074 2.271739,0.203726 0.200158,0.602139 0.936572,12.477998 0.788591,12.717438 -0.07469,0.12084 -0.891963,0.21971 -1.816206,0.21971 h -1.680421 l -0.166741,-2.315104 c -0.0917,-1.273307 -0.238046,-2.910416 -0.325173,-3.63802 l -0.158459,-1.322917 -0.925248,2.579687 -0.925248,2.579688 h -1.283996 -1.284023 l -1.197081,-2.315104 -1.197081,-2.315104 0.165735,3.599359 0.165735,3.599355 -0.625157,0.16734 c -1.084607,0.29033 -2.883906,0.19647 -2.99347,-0.15616 z m 2.964366,-0.58836 c 0.0368,-0.0289 -0.05062,-1.47103 -0.194231,-3.204744 -0.356447,-4.302429 -0.3429,-5.401164 0.06654,-5.401164 0.184811,0 1.017614,1.369218 1.850628,3.042708 1.407372,2.827343 1.568582,3.042708 2.277798,3.042708 0.739034,0 0.799862,-0.104928 1.917012,-3.307291 0.63455,-1.819011 1.290055,-3.307292 1.456663,-3.307292 0.341525,0 0.531125,1.390502 0.788776,5.784699 l 0.176266,3.006576 1.044204,-0.14006 c 0.574305,-0.077 1.108155,-0.20399 1.186286,-0.28214 0.161449,-0.161446 -0.550783,-11.486153 -0.730435,-11.6142 -0.06424,-0.04579 -0.851853,-0.03863 -1.750245,0.01593 l -1.633432,0.09917 -1.144693,3.283704 c -0.786871,2.257242 -1.270397,3.284048 -1.546887,3.28481 -0.249449,7.94e-4 -0.983244,-1.166175 -1.932093,-3.0724 l -1.529927,-3.073503 -1.568053,0.113421 c -0.862409,0.06238 -1.640893,0.186275 -1.729925,0.275315 -0.151157,0.151141 0.241485,7.385823 0.565917,10.427354 l 0.145256,1.361789 1.108843,-0.14142 c 0.609864,-0.0778 1.138952,-0.16507 1.175729,-0.19396 z m 13.968624,-0.44039 c -0.159914,-0.458042 -1.015021,-12.675666 -0.895403,-12.793615 0.0966,-0.09526 7.421271,-0.66357 8.552365,-0.66357 0.674317,0 0.689293,0.03725 0.611876,1.521354 l -0.07935,1.521354 -2.483988,0.190942 c -1.366202,0.105019 -2.541349,0.248304 -2.611464,0.318408 -0.07011,0.07011 -0.04868,0.441407 0.04763,0.825111 l 0.175102,0.697645 2.502508,-0.187621 2.502509,-0.187622 v 1.618965 1.618964 h -1.285981 c -0.707284,0 -1.810597,0.0719 -2.451762,0.159787 l -1.16578,0.159787 0.100541,1.054254 0.100542,1.054251 2.719202,-0.185341 2.719176,-0.185341 0.184362,1.340358 c 0.101388,0.737196 0.116284,1.450478 0.0331,1.585069 -0.08319,0.134591 -1.671161,0.324181 -3.52888,0.421321 -1.857692,0.0971 -3.882284,0.24395 -4.499054,0.32624 -0.813303,0.10851 -1.156018,0.0506 -1.247246,-0.2107 z m 7.726468,-0.932919 c 0.766181,-0.131638 0.859896,-0.242715 0.859896,-1.019159 0,-0.848106 -0.02654,-0.868783 -0.992187,-0.772861 -3.97047,0.394409 -4.316439,0.370075 -4.579594,-0.322109 -0.403675,-1.061746 -0.308478,-2.657798 0.169466,-2.841204 0.230187,-0.08833 1.09339,-0.162224 1.918229,-0.164211 2.259753,-0.0055 2.690336,-0.182714 2.690336,-1.107565 v -0.784873 l -2.315104,0.04762 c -1.273307,0.02619 -2.47015,0.03609 -2.659645,0.02199 -0.247094,-0.01839 -0.321945,-0.418631 -0.264583,-1.414703 l 0.07996,-1.389065 1.455208,-0.06434 c 0.800365,-0.03539 1.968156,-0.133014 2.595087,-0.216956 1.095057,-0.146624 1.13665,-0.185684 1.058333,-0.993997 -0.06347,-0.654886 -0.198834,-0.832342 -0.610711,-0.800613 -0.291042,0.02241 -2.047214,0.123706 -3.902604,0.225079 l -3.373438,0.184316 -0.0034,0.965544 c -0.0026,0.53105 0.141685,3.211803 0.319061,5.957228 l 0.322528,4.991682 3.186668,-0.177035 c 1.752653,-0.09737 3.573621,-0.243515 4.046564,-0.324771 z m 6.019271,-0.195347 c -1.83605,-0.810456 -2.424509,-2.257658 -2.77241,-6.818196 -0.147955,-1.939491 -0.269293,-4.015827 -0.269637,-4.614079 v -1.087731 l 1.653646,-0.151913 c 0.909505,-0.08355 1.747758,-0.05957 1.862746,0.05329 0.115014,0.11286 0.368221,2.192921 0.562716,4.62236 0.384228,4.799912 0.62439,5.460889 1.981173,5.452882 1.767708,-0.01042 1.966013,-0.755112 1.587977,-5.963038 -0.174176,-2.399689 -0.269664,-4.405757 -0.21217,-4.457933 0.05749,-0.05218 0.856086,-0.147037 1.774614,-0.210804 1.364191,-0.0947 1.713124,-0.03546 1.905238,0.323509 0.129355,0.241694 0.308239,2.571543 0.397536,5.177443 0.158383,4.622334 0.147373,4.763352 -0.450056,5.776484 -0.944007,1.600866 -2.453481,2.271183 -5.085742,2.258451 -1.17766,-0.0057 -2.498407,-0.168024 -2.93497,-0.360725 z m 5.98969,-0.850106 c 0.507868,-0.291595 1.152922,-1.018942 1.503469,-1.695283 0.569701,-1.099125 0.60235,-1.394508 0.45249,-4.094988 -0.08882,-1.60073 -0.23233,-3.600895 -0.318902,-4.444812 l -0.157427,-1.534393 -1.221105,0.07919 c -1.027351,0.06662 -1.213856,0.161251 -1.175359,0.596371 0.02514,0.284451 0.127609,2.308513 0.227621,4.497916 0.175128,3.83363 0.160497,4.007618 -0.395711,4.708335 -0.485325,0.611433 -0.779145,0.727604 -1.840256,0.727604 -2.120212,0 -2.373842,-0.6736 -2.814452,-7.474479 l -0.167138,-2.579687 h -1.323049 -1.323048 l 0.146579,1.25677 c 0.08064,0.691224 0.219419,2.447396 0.308398,3.902604 0.255164,4.172633 0.828675,5.573493 2.61493,6.387254 1.152075,0.524843 4.324959,0.332491 5.48296,-0.332399 z m 5.418402,-0.829334 c -0.29446,-2.45119 -0.76237,-11.143903 -0.61987,-11.515285 0.10925,-0.2847 0.94509,-0.418984 3.40953,-0.547772 3.86961,-0.202224 5.11521,0.03004 6.10904,1.139124 0.59984,0.669393 0.7276,1.057886 0.7276,2.212434 0,0.783336 -0.16335,1.623875 -0.3707,1.907461 -0.32737,0.447707 -0.30864,0.550484 0.16023,0.878898 0.29202,0.204547 0.69699,0.769236 0.8999,1.254866 0.82267,1.968973 0.1705,4.025077 -1.55615,4.905946 -1.05116,0.536266 -4.35554,0.99875 -7.24437,1.013929 l -1.36424,0.0072 z m 5.45912,0.311825 c 1.93471,-0.176895 3.73774,-0.898449 4.14456,-1.658607 0.78608,-1.468803 0.0411,-3.982167 -1.3072,-4.410096 -0.68881,-0.218631 -0.65876,-0.498705 0.1392,-1.296673 1.25481,-1.254794 0.64307,-3.563582 -1.09627,-4.137622 -0.88858,-0.293254 -7.0575,-0.256265 -7.35788,0.04412 -0.0587,0.05871 0.0591,2.427107 0.26172,5.263099 0.20265,2.835992 0.3727,5.489686 0.37786,5.897094 l 0.009,0.740741 1.5875,-0.145428 c 0.87312,-0.07999 2.33164,-0.213469 3.24114,-0.296627 z m -2.3377,-1.796659 c -0.076,-0.198196 -0.10208,-1.0614 -0.0578,-1.918229 l 0.0804,-1.557874 1.38115,-0.0797 c 1.60179,-0.09243 2.37881,0.240924 2.73299,1.17248 0.39885,1.049051 0.0284,1.959607 -0.96647,2.375273 -1.14547,0.478605 -2.98789,0.483282 -3.17027,0.008 z m 3.27342,-0.795369 c 0.55258,-0.341506 0.36679,-1.447945 -0.31853,-1.896978 -0.44902,-0.294211 -0.92199,-0.366085 -1.5875,-0.241239 -1.00198,0.187976 -1.09032,0.399113 -0.79166,1.892369 0.15036,0.751882 0.19796,0.774912 1.26643,0.612756 0.61063,-0.09267 1.25468,-0.257775 1.43126,-0.366908 z m -3.71689,-5.789589 c -0.0751,-0.763984 -0.0832,-1.478358 -0.018,-1.587499 0.19423,-0.325345 3.13013,-0.224721 3.47393,0.119062 0.48193,0.481946 0.38287,1.922547 -0.16637,2.419617 -0.31563,0.285628 -0.9479,0.437883 -1.81843,0.437883 h -1.33456 z m 2.56551,0.601861 c 1.36662,-0.519586 0.67376,-1.858631 -0.96174,-1.858631 -0.99658,0 -1.00542,0.0093 -1.00542,1.058333 0,0.944954 0.069,1.058333 0.64424,1.058333 0.35433,0 0.94964,-0.116115 1.32292,-0.258035 z m -53.237633,7.883819 c -0.1778,-0.177808 -0.323294,-0.666369 -0.323294,-1.085697 v -0.762412 l -0.933503,0.576942 c -0.751443,0.464418 -1.009465,0.513911 -1.322917,0.253767 -0.588036,-0.488018 -0.468312,-1.25282 0.272045,-1.737923 0.852964,-0.558869 0.833199,-0.720873 -0.132292,-1.085305 -0.881433,-0.332711 -1.060952,-1.117336 -0.384148,-1.679035 0.33647,-0.279247 0.572611,-0.262181 1.322916,0.09561 l 0.913316,0.435539 v -1.070817 c 0,-1.048718 0.01773,-1.069104 0.859896,-0.987906 0.759777,0.07326 0.869685,0.184904 0.944006,0.958866 0.04628,0.481777 0.165339,0.835144 0.264584,0.785262 0.09927,-0.04989 0.5003,-0.251357 0.891222,-0.44772 0.924084,-0.464204 1.538208,-0.210307 1.538208,0.635952 0,0.463709 -0.207327,0.769909 -0.661458,0.976816 -0.862727,0.393088 -0.834337,0.609793 0.132292,1.010192 0.793829,0.328808 0.934693,0.647777 0.633148,1.433568 -0.201877,0.526142 -0.707364,0.530545 -1.704605,0.01484 l -0.780627,-0.403667 v 1.065128 c 0,0.585819 -0.109325,1.065128 -0.24294,1.065128 -0.133615,0 -0.404865,0.06213 -0.602747,0.138075 -0.197909,0.07594 -0.505302,-0.0074 -0.683102,-0.185208 z m 0.927365,-1.540317 c -0.07808,-0.582054 -0.03945,-1.121624 0.0858,-1.199041 0.125254,-0.07742 0.664263,0.04162 1.197743,0.264533 1.121515,0.46859 1.169961,0.47662 1.169961,0.19386 0,-0.116287 -0.416719,-0.362119 -0.926042,-0.546293 -1.185254,-0.428599 -1.171919,-0.899237 0.04686,-1.652476 0.535093,-0.330703 0.834469,-0.647415 0.665321,-0.703803 -0.169175,-0.05639 -0.655108,0.144944 -1.079897,0.447408 -0.992849,0.706975 -1.351174,0.694981 -1.355672,-0.04538 -0.0056,-0.903483 -0.291915,-1.785937 -0.579676,-1.785937 -0.153193,0 -0.184811,0.427172 -0.07826,1.057751 0.216773,1.283155 -0.212302,1.569315 -1.418088,0.945766 -0.932629,-0.48228 -1.095375,-0.50732 -1.095375,-0.168561 0,0.136102 0.416719,0.398145 0.926042,0.582319 1.184725,0.4284 1.190757,1.061003 0.01614,1.693553 -0.500407,0.269497 -0.849234,0.588055 -0.775177,0.707914 0.07408,0.119856 0.472149,-0.02236 0.884555,-0.316037 1.132073,-0.806101 1.521751,-0.687752 1.726539,0.524378 0.237199,1.404064 0.777504,1.404112 0.589174,5e-5 z m 60.103988,1.55547 c -0.12922,-0.451615 -0.94004,-12.846013 -0.85034,-12.998749 0.0641,-0.10914 0.92657,-0.198437 1.91661,-0.198437 h 1.80009 l 0.16455,2.182812 c 0.0905,1.200547 0.24386,3.416403 0.34081,4.924126 l 0.17626,2.741313 2.80443,-0.09548 2.80442,-0.09548 0.0783,1.484217 0.0782,1.484215 -2.59178,0.173651 c -1.42549,0.09551 -3.51453,0.246658 -4.64232,0.335886 -1.12779,0.08923 -2.06343,0.117094 -2.07923,0.06193 z m 8.60121,-1.489374 c -0.0145,-0.181901 -0.0443,-0.586751 -0.0661,-0.899668 -0.0386,-0.553874 -0.10932,-0.564375 -2.66972,-0.396582 -1.53128,0.100349 -2.69328,0.07004 -2.78138,-0.07256 -0.0833,-0.134702 -0.29292,-2.397022 -0.46593,-5.027377 l -0.31462,-4.782459 h -1.14567 c -0.75091,0 -1.19586,0.130744 -1.2913,0.37945 -0.12954,0.337577 0.17833,5.743754 0.57354,10.071592 l 0.14496,1.5875 4.02135,-0.264584 c 2.92651,-0.192548 4.01413,-0.354626 3.99487,-0.595312 z m 2.01083,0.10809 c 0,-0.340733 -0.18246,-3.214214 -0.40545,-6.385512 -0.22301,-3.171298 -0.33221,-5.839312 -0.2427,-5.928921 0.22863,-0.228843 8.67953,-0.790495 8.89238,-0.590994 0.0959,0.08992 0.215,0.758473 0.26459,1.48568 l 0.0901,1.322194 -1.19063,0.179547 c -0.65484,0.09875 -1.88909,0.188372 -2.74283,0.19916 -1.47677,0.01865 -1.54445,0.04854 -1.39268,0.614923 0.0878,0.327422 0.16092,0.714375 0.16256,0.859895 0.003,0.16341 0.95369,0.232598 2.48912,0.180941 l 2.4861,-0.08365 0.11668,1.274271 c 0.0642,0.700847 0.0366,1.367991 -0.0612,1.482545 -0.0978,0.114551 -1.20926,0.281064 -2.46989,0.370028 l -2.29203,0.16175 v 1.169157 c 0,0.987666 0.0719,1.148548 0.46302,1.036402 0.25466,-0.07302 1.47505,-0.170336 2.71198,-0.216268 l 2.24896,-0.08351 0.24413,1.263994 c 0.14954,0.774157 0.1492,1.358924 0,1.508953 -0.24151,0.241488 -5.97636,0.798928 -8.21926,0.798928 -1.03182,0 -1.15221,-0.06473 -1.15221,-0.619514 z m 5.75469,-0.324596 2.97656,-0.172059 V 95.18897 94.266387 l -2.75738,0.187944 -2.75738,0.187944 -0.17841,-1.189752 c -0.31843,-2.123432 -0.29329,-2.14821 2.45359,-2.4193 l 2.44583,-0.241379 v -0.895713 -0.89571 l -2.57969,0.07876 -2.57968,0.07876 -0.0786,-1.350065 -0.0786,-1.350068 1.63881,-0.171286 c 0.90133,-0.09421 2.09756,-0.171289 2.65829,-0.171289 0.9946,0 1.01952,-0.02334 1.01952,-0.954582 v -0.954582 l -2.71198,0.169772 c -1.49159,0.09338 -3.27752,0.236453 -3.96875,0.317953 -1.20211,0.141735 -1.25682,0.184496 -1.2583,0.983247 -0.003,1.392896 0.5715,10.334984 0.68783,10.713955 0.0764,0.248888 0.40283,0.310983 1.10022,0.209285 0.54539,-0.07953 2.33106,-0.222025 3.96817,-0.316658 z m 6.7823,-0.136557 c -1.08439,-0.25827 -1.08979,-0.265739 -1.26346,-1.743416 -0.0959,-0.816219 -0.11356,-1.544916 -0.0391,-1.619327 0.0744,-0.07441 1.04469,0.07887 2.1562,0.340622 2.23816,0.527079 3.66792,0.363934 4.1783,-0.476771 0.42153,-0.694373 -0.30742,-1.138116 -2.4684,-1.502614 -3.0914,-0.521433 -4.36682,-1.713098 -4.36481,-4.078226 0.003,-2.927435 1.65973,-4.129315 5.6859,-4.123486 3.68445,0.0053 3.68675,0.0065 3.68675,1.910172 v 1.587487 l -0.7276,-0.169442 c -2.76352,-0.643564 -5.09323,-0.412742 -5.09323,0.504627 0,0.540922 0.6662,0.820613 2.80181,1.176292 2.27864,0.379497 3.45572,1.051271 3.96099,2.260587 0.90242,2.159791 0.20111,4.409807 -1.72519,5.534813 -1.05476,0.616027 -4.92193,0.843153 -6.78812,0.398682 z m 6.4026,-0.931823 c 1.19126,-0.565293 1.75657,-1.525746 1.77914,-3.022838 0.0345,-2.285976 -1.00883,-3.173883 -4.31456,-3.671887 -1.95218,-0.294095 -2.91042,-0.861237 -2.91042,-1.722567 0,-1.219359 2.09389,-1.918816 4.4437,-1.484426 0.8109,0.149899 1.51199,0.272542 1.55803,0.272542 0.046,0 0.0837,-0.360133 0.0837,-0.800299 0,-1.087339 -0.87704,-1.395531 -3.57188,-1.255125 -3.25157,0.169416 -4.63021,1.20708 -4.63021,3.485044 0,2.006624 1.20007,3.091087 3.84268,3.472545 0.72419,0.104534 1.70365,0.347924 2.1766,0.540866 0.74136,0.302443 0.85989,0.479476 0.85989,1.284243 0,1.423482 -0.82875,1.847294 -3.2472,1.660557 -1.0517,-0.0812 -2.18006,-0.229635 -2.50749,-0.329846 -0.54022,-0.165349 -0.59531,-0.0948 -0.59531,0.762709 0,0.886005 0.0619,0.955255 0.99219,1.110859 0.5457,0.09127 1.11125,0.213799 1.25677,0.272282 0.56316,0.22633 3.95494,-0.181062 4.78438,-0.574659 z m 6.37223,-3.72015 c -0.097,-0.09701 -0.1764,-0.493887 -0.1764,-0.881943 0,-1.002208 -0.23387,-1.116235 -1.06932,-0.521349 -0.96943,0.690309 -1.26089,0.65826 -1.64314,-0.180692 -0.2753,-0.604234 -0.25289,-0.74246 0.1609,-0.992187 1.39411,-0.841388 1.40205,-0.872056 0.34065,-1.315534 -0.85741,-0.358246 -0.97677,-0.506394 -0.82159,-1.019789 0.30684,-1.015114 0.5824,-1.128377 1.58361,-0.650923 0.51573,0.245928 0.9634,0.44722 0.99486,0.447315 0.0314,9.6e-5 0.0572,-0.446389 0.0572,-0.992187 0,-0.92619 0.0573,-0.997889 0.8599,-1.075269 0.82478,-0.07952 0.85989,-0.0444 0.85989,0.859895 0,1.071277 0.15516,1.127901 1.31461,0.479783 0.79854,-0.446374 0.84212,-0.444556 1.21209,0.05057 0.56089,0.750697 0.4799,1.035307 -0.4512,1.58531 l -0.83492,0.493199 0.96721,0.496207 c 1.0717,0.549809 1.08186,0.568764 0.69334,1.294712 -0.32879,0.614341 -0.81698,0.645366 -1.83896,0.116872 l -0.76366,-0.394904 0.15425,0.95055 c 0.10737,0.66159 0.0419,1.021696 -0.2154,1.1846 -0.44024,0.278752 -1.13773,0.311902 -1.38387,0.06576 z m 0.88193,-1.675693 c 0,-0.893173 0.0853,-1.058334 0.54658,-1.058334 0.30059,0 0.78345,0.126783 1.07299,0.281742 0.28953,0.154958 0.66868,0.229981 0.84251,0.166716 0.17383,-0.06326 -0.18997,-0.32204 -0.80843,-0.575053 -0.61847,-0.253016 -1.12448,-0.606946 -1.12448,-0.78651 0,-0.179565 0.41672,-0.5509 0.92604,-0.825188 0.50932,-0.274288 0.92604,-0.590693 0.92604,-0.703122 0,-0.301578 -0.13994,-0.260107 -1.16679,0.345746 -1.15741,0.682887 -1.47904,0.502317 -1.47904,-0.83036 0,-0.573495 -0.11906,-1.04272 -0.26459,-1.04272 -0.14552,0 -0.26458,0.535781 -0.26458,1.190625 0,1.3228 -0.35314,1.499372 -1.5875,0.79375 -0.77547,-0.443299 -1.05833,-0.486333 -1.05833,-0.16102 0,0.12972 0.47625,0.426413 1.05833,0.659318 0.58208,0.232902 1.05833,0.542393 1.05833,0.687752 0,0.145362 -0.41523,0.533278 -0.92276,0.862039 -0.50752,0.328758 -0.92424,0.68704 -0.92604,0.796181 -0.006,0.32898 0.35687,0.215413 1.05505,-0.330729 1.09948,-0.860012 1.5875,-0.697333 1.5875,0.529167 0,0.582083 0.11907,1.058333 0.26459,1.058333 0.14552,0 0.26458,-0.47625 0.26458,-1.058333 z"
       style="fill:#000000;stroke-width:0.26458332" />
  </g>
</svg>
